<?xml version="1.0"?>
<svg xmlns="http://www.w3.org/2000/svg" xmlns:xlink="http://www.w3.org/1999/xlink" xmlns:svgjs="http://svgjs.com/svgjs" version="1.1" width="512" height="512" x="0" y="0" viewBox="0 0 384 384" style="enable-background:new 0 0 512 512" xml:space="preserve" class=""><g>
<g xmlns="http://www.w3.org/2000/svg">
	<g>
		<path d="M149.767,341.333c0,23.516,19.103,42.667,42.667,42.667c23.516,0,42.667-19.103,42.667-42.667H149.767z" fill="#ffffff" data-original="#000000" style="" class=""/>
	</g>
</g>
<g xmlns="http://www.w3.org/2000/svg">
	<g>
		<g>
			<path d="M355.955,262.974l-35.419-51.919v-83.876c0-69.681-55.708-126.005-125.129-127.146c-0.494-0.008-0.988-0.013-1.484-0.016     c-0.495,0.009-0.99,0.02-1.484,0.034C123.025,2.061,65.838,59.088,64.075,128.812l-2.064,81.668l-34.22,52.009     c-12.957,19.693-4.318,35.657,19.262,35.657h290.174C360.822,298.147,369.19,282.375,355.955,262.974z M83.476,255.48     l20.879-31.733l2.372-93.856c1.193-47.177,40.403-86.11,87.462-87.203c46.43,0.498,83.679,37.974,83.679,84.492v97.043     l21.324,31.258H83.476z" fill="#ffffff" data-original="#000000" style="" class=""/>
			<path d="M192.44,0.019c0.495-0.003,0.99-0.003,1.484-0.001c0.494-0.009,0.988-0.015,1.483-0.018L192.44,0.019z" fill="#ffffff" data-original="#000000" style="" class=""/>
		</g>
	</g>
</g>
<g xmlns="http://www.w3.org/2000/svg">
</g>
<g xmlns="http://www.w3.org/2000/svg">
</g>
<g xmlns="http://www.w3.org/2000/svg">
</g>
<g xmlns="http://www.w3.org/2000/svg">
</g>
<g xmlns="http://www.w3.org/2000/svg">
</g>
<g xmlns="http://www.w3.org/2000/svg">
</g>
<g xmlns="http://www.w3.org/2000/svg">
</g>
<g xmlns="http://www.w3.org/2000/svg">
</g>
<g xmlns="http://www.w3.org/2000/svg">
</g>
<g xmlns="http://www.w3.org/2000/svg">
</g>
<g xmlns="http://www.w3.org/2000/svg">
</g>
<g xmlns="http://www.w3.org/2000/svg">
</g>
<g xmlns="http://www.w3.org/2000/svg">
</g>
<g xmlns="http://www.w3.org/2000/svg">
</g>
<g xmlns="http://www.w3.org/2000/svg">
</g>
</g></svg>
