<?xml version="1.0" encoding="utf-8"?>
<!-- Generator: Adobe Illustrator 24.0.3, SVG Export Plug-In . SVG Version: 6.00 Build 0)  -->
<svg version="1.1" id="Layer_1" xmlns="http://www.w3.org/2000/svg" xmlns:xlink="http://www.w3.org/1999/xlink" x="0px" y="0px"
	 viewBox="0 0 512 416" style="enable-background:new 0 0 512 416;" xml:space="preserve">
<style type="text/css">
	.st0{fill:#FFFFFF;}
</style>
<path class="st0" d="M452,0H60C26.9,0,0,26.9,0,60v49.5l220.2,163.8c10.7,8,23.3,11.9,35.8,11.9c12.5,0,25.1-4,35.8-11.9L512,109.5
	V60C512,26.9,485.1,0,452,0z M472,89.4L267.9,241.2c-7.1,5.3-16.7,5.3-23.9,0L40,89.4V60c0-11,9-20,20-20h392c11,0,20,9,20,20V89.4z
	 M472,189.1l40-29.8V356c0,33.1-26.9,60-60,60H60c-33.1,0-60-26.9-60-60V159.3l40,29.8V356c0,11,9,20,20,20h392c11,0,20-9,20-20
	V189.1z"/>
</svg>
