<?xml version="1.0" encoding="utf-8"?>
<!-- Generator: Adobe Illustrator 24.0.3, SVG Export Plug-In . SVG Version: 6.00 Build 0)  -->
<svg version="1.1" id="Capa_1" xmlns="http://www.w3.org/2000/svg" xmlns:xlink="http://www.w3.org/1999/xlink" x="0px" y="0px"
	 viewBox="0 0 1920 1605.5" style="enable-background:new 0 0 1920 1605.5;" xml:space="preserve">
<style type="text/css">
	.st0{fill:#CF131B;}
</style>
<g>
	<path d="M708.6,10.8c-2.7,21.8-4.8,45.4-6.1,70.7c-1.4,25.3-2,52.2-2,80.9v51.7c0,20.8,0.7,45.6,2,74.2c0.7,28,1.4,52.4,2,73.2
		c0.7,20.8,1,38.1,1,51.7c0,26.6-0.5,51.7-1.5,75.3c-1,23.6-2.9,45.9-5.6,67.1c1.4,6.8,2.4,17.7,3.1,32.8c0.7,15,1.4,34.1,2,57.3
		c0.7,37.5,4.8,66.6,12.3,87c-0.7-0.7-1.4-1-2-1c-2.7,0-5.1-0.3-7.2-1c-4.1-1.4-6.8,0.3-8.2,5.1c3.4,22.5,1.7,36.2-5.1,41
		c0.7-0.7,0-2-2-4.1c-5.5-1.4-8.5-1-9.2,1v7.2c0.7,2.7,0.3,4.8-1,6.1c-2-16.4-10.9-30.4-26.6-42c-12.3,9.6-16.4,19.5-12.3,29.7
		c-11.6-3.4-21.5-3.4-29.7,0c-8.9-13.7-16.2-30.4-22-50.2c-5.8-19.8-9.4-42.7-10.8-68.6L575.5,531c-2.7,11.6-4.6,24.1-5.6,37.4
		c-1,13.3-1.5,26.8-1.5,40.4c0,15,1.5,37.2,4.6,66.6c3.1,29.4,8,66.6,14.8,111.6c-10.9-10.9-19.8-26.6-26.6-47.1
		c-10.2-45.1-15.4-98.3-15.4-159.7c0-13.7,0.3-31.1,1-52.2c0.7-21.2,1.7-46.1,3.1-74.8c1.4-28.7,2.4-53.6,3.1-74.8s1-38.6,1-52.2
		c0-25.9-0.9-50.7-2.6-74.2c-1.7-23.6-4.3-45.2-7.7-65c-2.7,13-17.7,41.3-45.1,85c-21.2,32.8-30,62.8-26.6,90.1
		c-2,3.4-4.1,7-6.1,10.8c-2,3.8-3.8,7.3-5.1,10.8c-5.5,9.6-7.5,17.7-6.1,24.6c-3.4,6.8-8.4,12.3-14.8,16.4
		c-6.5,4.1-12.8,7.9-18.9,11.3c-4.1-1.4-5.8-3.4-5.1-6.1c2-5.5,2.7-8.5,2-9.2c5.5-7.5,6.5-13,3.1-16.4c-4.8-6.8-11.3-9.6-19.5-8.2
		c-0.7,6.8-7.5,12.6-20.5,17.4c0-3.4-2.4-5.1-7.2-5.1h-9.2v3.1c-2.7,1.4-5.1,1-7.2-1c-2-2-3.8-4.1-5.1-6.1l-3.1,2
		c-3.4-2-5.1-5.1-5.1-9.2c0-1.4,0.5-4.1,1.5-8.2c1-4.1,1.5-7.2,1.5-9.2c0-3.4-1.7-6.8-5.1-10.2c-2,2.7-3.4,6.5-4.1,11.3
		c-0.7,4.8-1,9.6-1,14.3c0,4.8-0.2,9.6-0.5,14.3c-0.3,4.8-0.9,8.5-1.5,11.3v-9.2c0-7.5-3.4-10.9-10.2-10.2l-12.3,15.4l-7.2-10.2
		l-10.2,19.5c3.4-5.5,5.1-15,5.1-28.7v-34.8c-13.7-9.6-30.2-21.8-49.7-36.9c-19.5-15-42.2-32.4-68.1-52.2c-4.1,23.2-3.4,40.6,2,52.2
		l-2-3.1c-11.6,45.1-17.4,98.3-17.4,159.7c0,14.3,0.3,32.9,1,55.8c0.7,22.9,2,50,4.1,81.4c1.4,30.7,2.7,57.2,4.1,79.4
		c1.4,22.2,1.7,41.1,1,56.8c-10.2,0-15.4,5.1-15.4,15.4c0,3.4,0.3,6.5,1,9.2v9.2c0,6.1-1.7,10.2-5.1,12.3v8.2c-2-2.7-4.8-3.4-8.2-2
		c-1.4,0.7-2.6,1.4-3.6,2c-1,0.7-2.2,1.4-3.6,2c-1.4-8.9-4.8-17.4-10.2-25.6l-16.4-23.6c-3.4,2.7-5.3,8.2-5.6,16.4
		c-0.3,8.2-2.6,13.3-6.7,15.4c-7.5-0.7-13.5-1.4-17.9-2c-4.4-0.7-7.3-1.4-8.7-2c-8.2-3.4-14-9.2-17.4-17.4
		c-5.5-12.3-9.2-28-11.3-47.1l-6.1-49.2c-3.4,17.7-4.1,40.3-2,67.6l4.1,65.5c0.7-2.7,0-6.1-2-10.2h-5.1
		C24.6,772,19.5,733.4,19.5,683.6c0-4.8,0.2-10.4,0.5-16.9c0.3-6.5,0.5-14.5,0.5-24.1v-42c0-11.6-1-28.7-3.1-51.2
		c-0.7-11.6-1.2-21.7-1.5-30.2c-0.3-8.5-0.5-15.5-0.5-21c0-10.2,0.7-22.9,2-37.9c1.4-15,3.4-32.4,6.1-52.2c2.7-19.8,4.8-37,6.1-51.7
		c1.4-14.7,2-26.8,2-36.4c0-26.6-3.8-51.2-11.3-73.7c-5.5-15.7-9.9-39.3-13.3-70.7L0,104c4.1-0.7,6.8,0.7,8.2,4.1l4.1,10.2
		c4.1,25.9,8.9,57.7,14.3,95.2c5.5,37.5,11.6,81.2,18.4,131.1c3.4,2,4.4,3.8,3.1,5.1c-2,4.1-3.1,6.5-3.1,7.2
		c2,17.7,0.3,38.6-5.1,62.5c-3.4,14.3-6,26.3-7.7,35.8c-1.7,9.6-2.6,17.1-2.6,22.5c0,7.5,1,14.7,3.1,21.5c-5.5,3.4-5.5,11.6,0,24.6
		c-1.4,21.2-1.4,42,0,62.5c1.4,20.5,3.8,40.6,7.2,60.4c9.6-61.4,8.5-112.3-3.1-152.6l22.5-200.7c-8.9-37.5-15.4-70.8-19.5-99.8
		c-4.1-29-6.1-53.8-6.1-74.2V103c0-5.5,0.3-10.9,1-16.4c11.6-9.6,19.8-10.2,24.6-2c0.7,0.7,1.5,0.7,2.6,0c1-0.7,1.9-1.4,2.6-2
		c0.7-0.7,1.4-1.7,2-3.1l10.2,7.2c0.7-4.1,3.8-9.9,9.2-17.4c2.7-0.7,4.9,1,6.7,5.1c1.7,4.1,3.6,6.5,5.6,7.2c0.7-5.5,4.3-9,10.8-10.8
		c6.5-1.7,10.4-2.9,11.8-3.6c2,2.7,3.8,3.4,5.1,2c-0.7-8.2,1.7-13.3,7.2-15.4c8.2-2.7,14-6.5,17.4-11.3
		c25.9,17.1,61.8,47.1,107.5,90.1c42.3,40.3,78.5,69.3,108.5,87c6.8-20.5,21.2-49.2,43-86c21.2-36.9,35.5-65.5,43-86
		c0.7,2.7,3.6,5.1,8.7,7.2c5.1,2,7.7,4.4,7.7,7.2c0,0.7-0.7,3.1-2,7.2c-13.7,18.4-20.1,34.8-19.5,49.2c4.8-9.6,10.9-20.8,18.4-33.8
		c7.5-13,17.1-28,28.7-45.1c1.4,3.4,3.1,4.4,5.1,3.1l7.2-7.2c3.4,0.7,6.8,1.2,10.2,1.5c3.4,0.3,6.8,0.5,10.2,0.5s7.2-0.2,11.3-0.5
		c4.1-0.3,8.2-0.9,12.3-1.5c2.7-2.7,5.5-3.1,8.2-1c3.4,2,6,4.3,7.7,6.7s3.6,3.6,5.6,3.6c6.1,0,12.6-4.4,19.5-13.3
		c9.6-10.2,14.7-15.7,15.4-16.4c-0.7,6.8,2.7,10.2,10.2,10.2c8.2,0,13,0.7,14.3,2l5.1-4.1l-2-3.1c1.4-3.4,4.4-5.1,9.2-5.1h12.3
		l12.3,12.3c4.8-17.1,14.7-24.2,29.7-21.5l2-3.1L708.6,10.8z M48.1,821.8h-3.1v-4.1h3.1V821.8z M162.8,150.1h3.1V147h-3.1V150.1z
		 M193.5,250.4c0.7,0,9.9,6.8,27.6,20.5L172,223.8C175.4,232,182.6,240.9,193.5,250.4z M248.8,309.8c-13.7-12.3-24.2-19.5-31.7-21.5
		l12.3,9.2c8.9,4.8,20.8,14,35.8,27.6c15.7,14.3,27.3,23.2,34.8,26.6c2.7-15.7-2-26.3-14.3-31.7c0.7,2.7-1,6.1-5.1,10.2
		C273.8,328.3,263.2,321.4,248.8,309.8z M315.4,369.2l2-2v-10.2L315.4,369.2z M329.7,428.6l-5.1,7.2L329.7,428.6z M349.2,334.4
		c-8.9,12.3-10.6,23.2-5.1,32.8C351.6,353.5,353.3,342.6,349.2,334.4z M579.1,463.4c1-21.2,1.5-44.4,1.5-69.6
		c0-23.2-1-70.7-3.1-142.3c-0.7-57.3-0.7-100.7,0-130c-2.7,17.7-4.6,36.2-5.6,55.3c-1,19.1-1.5,39.3-1.5,60.4c0,9.6,0.3,25.9,1,49.2
		c0.7,23.2,1.7,53.2,3.1,90.1c1.4,29.4,2.2,56.1,2.6,80.4c0.3,24.2-0.2,45.9-1.5,65C576.9,504.1,578.1,484.6,579.1,463.4z"/>
	<path d="M1230.8,22.1c-12.3,1.4-29.7,1.4-52.2,0c-12.3-0.7-22.9-1.2-31.7-1.5c-8.9-0.3-16,0.2-21.5,1.5l-34.8,5.1v2
		c4.1-0.7,8.2-1,12.3-1h13.3c7.5,0,16.6,0.5,27.1,1.5c10.6,1,22.7,2.2,36.4,3.6c13.7,1.4,25.8,2.4,36.4,3.1c10.6,0.7,19.6,1,27.1,1
		c5.5,0,10.6-0.2,15.4-0.5c4.8-0.3,9.6-0.9,14.3-1.5c-1.4,0-4.1,2-8.2,6.1c0.7,4.1,2.2,8.2,4.6,12.3c2.4,4.1,3.6,7.2,3.6,9.2
		c0,2.7-1,6.5-3.1,11.3l-20.5,7.2c-9.6,3.4-14.7,7.9-15.4,13.3c0.7,6.1,4.4,9.2,11.3,9.2c6.1,0.7,9.6-0.3,10.2-3.1
		c2.7,2,4.1,4.1,4.1,6.1c0,1.4-2,3.2-6.1,5.6c-4.1,2.4-5.8,4.9-5.1,7.7c-4.1-1.4-6.8-2-8.2-2c-4.1,0-8.4,2.7-12.8,8.2
		c-4.4,5.5-7.3,8.5-8.7,9.2c0.7,1.4,1,3.4,1,6.1c0,2.7-4.8,9.9-14.3,21.5c-4.8-0.7-11.3,0-19.5,2l15.4,9.2l-23.6-9.2
		c-7.5,1.4-31.7,1.4-72.7,0c-30.7-0.7-52.9,3.1-66.6,11.3c2.7,0,4.1-0.7,4.1-2v-6.1l-42,12.3c-9.6,2.7-18.1,4.8-25.6,6.1
		c-7.5,1.4-14.7,1.7-21.5,1L939,198.2l-3.1-2c-13.7,36.2-18.1,78.5-13.3,127c41.6-4.8,77.3-8.4,107-10.8c29.7-2.4,54.1-3.6,73.2-3.6
		h20c6.5,0,13.1,0.3,20,1l18.4,8.2l-61.4,2c-20.5,0.7-40.6,1.7-60.4,3.1c-25.9,1.4-49,3.2-69.1,5.6c-20.1,2.4-38.1,5.3-53.8,8.7
		c-0.7,0.7-1,2-1,4.1c0,2.7,2.7,4.6,8.2,5.6c5.5,1,8.9,2.2,10.2,3.6c19.8-3.4,46.4-6.1,79.9-8.2c33.5-2,74.4-3.1,122.9-3.1
		c12.3,9.6,23.2,14,32.8,13.3v6.1c-4.1,0-6.8,0.7-8.2,2c0,2-1.5,3.8-4.6,5.1c-3.1,1.4-6.1,3.1-9.2,5.1c-3.1,2-6.1,4.3-9.2,6.7
		c-3.1,2.4-4.6,4.9-4.6,7.7c7.5,9.6,16.7,13,27.6,10.2c-1.4,0.7-3.1,1-5.1,1s-4.6-0.5-7.7-1.5c-3.1-1-5.3-1.5-6.7-1.5
		c-3.4,0-6.1,2.4-8.2,7.2c2.7,2.7,4.1,5.5,4.1,8.2c0,1.4-1,3.4-3.1,6.1c-2,2.7-3.1,5.1-3.1,7.2c-11.6,2.7-26.3,4.9-44,6.7
		c-17.7,1.7-38.2,3.2-61.4,4.6c-25.9,1.4-48.1,2.7-66.6,4.1c-18.4,1.4-33.5,2.7-45.1,4.1v6.1c15,0,37.9-1,68.6-3.1
		c33.5-2,58-3.1,73.7-3.1c28,0,53.6,2.7,76.8,8.2c-21.8,5.5-58.7,8.5-110.6,9.2c-23.9,0.7-45.1,2.2-63.5,4.6
		c-18.4,2.4-34.1,5.3-47.1,8.7c0,9.6,1.4,14.7,4.1,15.4h6.1l-10.2,21.5c2,11.6,2.7,30.4,2,56.3c-1.4,23.9,0.7,42.3,6.1,55.3
		c17.1,0.7,37-0.3,59.9-3.1c22.9-2.7,49-7.5,78.3-14.3c62.1-13.7,107.2-20.5,135.2-20.5c6.8,0,13.5,0.2,20,0.5
		c6.5,0.3,13.1,0.9,20,1.5c-1.4-0.7-3.4-1-6.1-1c-5.5,0-14.3,6.1-26.6,18.4c-9.6,1.4-19.1,2.6-28.7,3.6c-9.6,1-19.1,2.2-28.7,3.6
		c-22.5,2.7-41,7.5-55.3,14.3c16.4,2,35.5,0.7,57.3-4.1c13.7-2.7,24.7-4.6,33.3-5.6c8.5-1,15.2-1.5,20-1.5c13,0,26.6,2.7,41,8.2
		c2.7,1.4,3.4,4.8,2,10.2c-2,4.8-5.6,7.2-10.8,7.2c-5.1,0-11.4,3.1-18.9,9.2l21.5,24.6c-3.4,0-9.6-1.7-18.4-5.1
		c-4.1,2-5.8,5.1-5.1,9.2c0.7,4.1,1.2,7,1.5,8.7c0.3,1.7,0.5,2.2,0.5,1.5l6.1,7.2l-19.5,9.2c-8.2,4.1-11.9,9.6-11.3,16.4
		c4.8,0.7,13,5.1,24.6,13.3c-4.8,0.7-10.1,1.4-15.9,2c-5.8,0.7-7.7,3.4-5.6,8.2c-15.7-0.7-32.3-0.2-49.7,1.5s-35,5.3-52.7,10.8
		l-95.2,27.6c-5.5-1.4-12.3-0.2-20.5,3.6c-8.2,3.8-14.7,5.6-19.5,5.6h-126l-5.1,8.2c-0.7-3.4-12.6-6.1-35.8-8.2
		c-22.5-1.4-32.1-10.2-28.7-26.6c-4.1-137.2-6.1-226.6-6.1-268.3c0-134.5,8.2-250.5,24.6-348.2v-29.7c0-12.3,2.7-21.2,8.2-26.6
		l8.2,8.2c2.7-0.7,4.8-3.4,6.1-8.2c-0.7-2-1-5.8-1-11.3c4.8,2.7,9.2,4.1,13.3,4.1c3.4,0,8.2-0.9,14.3-2.6c6.1-1.7,10.6-2.6,13.3-2.6
		c4.8,0,9.2,1,13.3,3.1c4.8-2.7,6.5-7.2,5.1-13.3c-1.4-6.1-1-10.6,1-13.3c40.3,2,68.9-1.4,86-10.2c-0.7,0-3.4-0.3-8.2-1
		c-4.8-0.7-11.6-1.7-20.5-3.1c-13-0.7-22.2-5.1-27.6-13.3l289.8-26.6c25.3-2,60.4,2.4,105.5,13.3C1267.4,19.4,1250,21.4,1230.8,22.1
		z M790,816.7c-4.4,3.4-8,5.1-10.8,5.1c-3.4,0-7.2-2-11.3-6.1v-13.3c3.4,0,4.8,1.2,4.1,3.6c-0.7,2.4-0.3,3.9,1,4.6h30.7
		C799.1,811.3,794.5,813.3,790,816.7z M906.2,323.2V315h-3.1L906.2,323.2z M909.3,285.3h-3.1v24.6h3.1V285.3z M1029.1,35.4l39.9-2
		C1063.6,32.7,1050.3,33.4,1029.1,35.4z M1052.7,476.8l46.1,6.1L1052.7,476.8z"/>
	<path class="st0" d="M1317.9,216.7c0,4.8,1,9.2,3.1,13.3l-9.2,6.1l-2-41c4.1,1.4,7.9-0.7,11.3-6.1c3.4-5.5,6.5-8.2,9.2-8.2
		C1322,199.2,1317.9,211.2,1317.9,216.7z M1910.3,215.1c1,22.9,2.2,43.2,3.6,60.9c1.4,19.1,2.7,38.4,4.1,57.9
		c1.4,19.5,2,39.4,2,59.9c0,49.2-4.1,120.2-12.3,213c-2.7,3.4-6.7,12.3-11.8,26.6c-5.1,14.3-11.8,33.5-20,57.3
		c-12.3,36.2-30.4,60.1-54.3,71.7c-8.2-6.1-16.7-9.2-25.6-9.2c-10.9,0-28.3,6.8-52.2,20.5c-28,14.3-54.3,21.5-78.8,21.5
		c-19.1,0-36.2-4.1-51.2-12.3c-13-1.4-28.7-3.8-47.1-7.2c-18.4-3.4-39.9-7.9-64.5-13.3c-10.9-2.7-37.9-19.8-80.9-51.2l-57.3-71.7
		v14.3l-5.1-14.3l2,2l3.1-2c-28.7-51.2-43-114.7-43-190.5c0-15,0.7-33.8,2-56.3c1.4-22.5,3.4-49.2,6.1-79.9
		c6.1-61.4,9.2-107.5,9.2-138.2c0-28.7-2-55.3-6.1-79.9l6.1-6.1l16.4,18.4l9.2-18.4l11.3,18.4c4.1-2.7,6.1-8.2,6.1-16.4v-7.2
		c-0.7-2-1-4.4-1-7.2c0-11.6,6.1-17.1,18.4-16.4c0.7,2.7,2.4,4.1,5.1,4.1c2,0,4.9-0.9,8.7-2.6s6.7-2.6,8.7-2.6c1.4,0,2.4,0.3,3.1,1
		c4.1-5.5,10.6-8.2,19.5-8.2h13.3c9.6,0,16-4.1,19.5-12.3l6.1,6.1c5.5-7.5,13-12.3,22.5-14.3c3.4,9.6,6.3,20.5,8.7,32.8
		c2.4,12.3,3.9,26.3,4.6,42l3.1,77.8c-0.7,8.9-2.2,22.4-4.6,40.4s-5.6,41.5-9.7,70.1c-3.4,23.2-6,44-7.7,62.5
		c-1.7,18.4-2.6,34.8-2.6,49.2c0,7.5,0.2,14.7,0.5,21.5s0.9,13.7,1.5,20.5c-2,49.2,11.3,95.6,39.9,139.3
		c14.3,21.8,30.9,40.6,49.7,56.3c18.8,15.7,39.8,29.4,63,41l10.2,4.1c3.4,1.4,6.8,2,10.2,2c17.7,0,33.1-11.6,46.1-34.8
		c16.4-80.6,24.6-162.8,24.6-246.8c0-11.6-0.2-23.2-0.5-34.8c-0.3-11.6-0.9-23.2-1.5-34.8c-0.7-13-2.4-30-5.1-51.2
		c-2.7-21.2-6.8-47.1-12.3-77.8c-4.8-28.7-8.2-53.9-10.2-75.8c-2-21.8-3.4-40.6-4.1-56.3c2-2,3.1-6.8,3.1-14.3
		c0-5.5,2.7-7.5,8.2-6.1l12.3,10.2c14.3,119.5,25.6,250.9,33.8,394.2c0-4.1-0.7-6.8-2-8.2c-2.7,31.4-5.6,63.7-8.7,96.8
		c-3.1,33.1-7,68.1-11.8,105c9.6-10.9,14.3-35.8,14.3-74.8v54.3c10.9-9.6,15.7-32.4,14.3-68.6c10.2-47.8,15.4-97.6,15.4-149.5
		c0-41.6-4.1-94.9-12.3-159.7c-5.5-44.4-9.9-80.6-13.3-108.5s-5.8-48.1-7.2-60.4c-5.5-4.1-8.2-15.7-8.2-34.8c1.4,0.7,3.1,1,5.1,1
		c2,0,3.8-1.4,5.1-4.1s2.6-5.8,3.6-9.2c1-3.4,1.9-6.7,2.6-9.7c0.7-3.1,1.7-5.3,3.1-6.7c2,4.1,4.8,6.1,8.2,6.1c2,0,5.1-1,9.2-3.1
		s7.2-3.1,9.2-3.1c-0.7,2,0,4.1,2,6.1c1.4-7.5,6.8-11.3,16.4-11.3h11.3c4.1,0,7.9,0.3,11.3,1l16.4,8.2l2-22.5c2,0,6-1.4,11.8-4.1
		s10.1-4.1,12.8-4.1c3.4,0,6.1,1.4,8.2,4.1l18.4,137.2C1907,167.2,1909.2,192.3,1910.3,215.1z M1356.8,419.4c0-10.9,0.3-22,1-33.3
		s1.7-22.7,3.1-34.3c-4.1,28.7-6.1,57.3-6.1,86c0,83.3,15.7,149.2,47.1,197.6C1371.8,563.8,1356.8,491.8,1356.8,419.4z
		 M1370.1,670.3h3.1v2h-3.1V670.3z M1378.3,172.6l-3.1-43L1378.3,172.6z M1424.4,750.2l28.7,26.6L1424.4,750.2z M1591.3,819.8
		c-3.4,0.7-7,1.2-10.8,1.5c-3.8,0.3-7.3,0.5-10.8,0.5c-40.3,0-77.1-13-110.6-38.9c4.1,0.7,16,6.8,35.8,18.4
		c15.7,7.5,28,10.9,36.9,10.2C1540.8,817.1,1560.6,819.8,1591.3,819.8z M1556.5,152.1l8.2-6.1c-8.9-17.7-13.3-37.5-13.3-59.4
		c0-16.4,3.1-30.7,9.2-43c-1.4,13.7-0.3,32.1,3.1,55.3c1.4,13,2.6,23.9,3.6,32.8c1,8.9,1.5,15.7,1.5,20.5c0,15-2,28.7-6.1,41
		C1566.7,171.3,1564.7,157.6,1556.5,152.1z M1761.3,557.6h3.1v18.4h-3.1V557.6z M1764.4,535.1h2v14.3h-2V535.1z M1769.5,500.3
		l-3.1-25.6l3.1,17.4V500.3z M1766.4,511.6h3.1v12.3h-3.1V511.6z"/>
</g>
<g>
	<path d="M1211.4,1593.3c2.7-21.8,4.8-45.4,6.1-70.7c1.4-25.3,2-52.2,2-80.9V1390c0-20.8-0.7-45.6-2-74.2c-0.7-28-1.4-52.4-2-73.2
		c-0.7-20.8-1-38.1-1-51.7c0-26.6,0.5-51.7,1.5-75.3c1-23.6,2.9-45.9,5.6-67.1c-1.4-6.8-2.4-17.7-3.1-32.8c-0.7-15-1.4-34.1-2-57.3
		c-0.7-37.5-4.8-66.6-12.3-87c0.7,0.7,1.4,1,2,1c2.7,0,5.1,0.3,7.2,1c4.1,1.4,6.8-0.3,8.2-5.1c-3.4-22.5-1.7-36.2,5.1-41
		c-0.7,0.7,0,2,2,4.1c5.5,1.4,8.5,1,9.2-1v-7.2c-0.7-2.7-0.3-4.8,1-6.1c2,16.4,10.9,30.4,26.6,42c12.3-9.6,16.4-19.5,12.3-29.7
		c11.6,3.4,21.5,3.4,29.7,0c8.9,13.7,16.2,30.4,22,50.2c5.8,19.8,9.4,42.7,10.8,68.6l4.1,124.9c2.7-11.6,4.6-24.1,5.6-37.4
		c1-13.3,1.5-26.8,1.5-40.4c0-15-1.5-37.2-4.6-66.6c-3.1-29.4-8-66.6-14.8-111.6c10.9,10.9,19.8,26.6,26.6,47.1
		c10.2,45.1,15.4,98.3,15.4,159.7c0,13.7-0.3,31.1-1,52.2c-0.7,21.2-1.7,46.1-3.1,74.8c-1.4,28.7-2.4,53.6-3.1,74.8
		c-0.7,21.2-1,38.6-1,52.2c0,25.9,0.9,50.7,2.6,74.2c1.7,23.6,4.3,45.2,7.7,65c2.7-13,17.7-41.3,45.1-85
		c21.2-32.8,30-62.8,26.6-90.1c2-3.4,4.1-7,6.1-10.8c2-3.8,3.8-7.3,5.1-10.8c5.5-9.6,7.5-17.7,6.1-24.6c3.4-6.8,8.4-12.3,14.8-16.4
		c6.5-4.1,12.8-7.9,18.9-11.3c4.1,1.4,5.8,3.4,5.1,6.1c-2,5.5-2.7,8.5-2,9.2c-5.5,7.5-6.5,13-3.1,16.4c4.8,6.8,11.3,9.6,19.5,8.2
		c0.7-6.8,7.5-12.6,20.5-17.4c0,3.4,2.4,5.1,7.2,5.1h9.2v-3.1c2.7-1.4,5.1-1,7.2,1s3.8,4.1,5.1,6.1l3.1-2c3.4,2,5.1,5.1,5.1,9.2
		c0,1.4-0.5,4.1-1.5,8.2c-1,4.1-1.5,7.2-1.5,9.2c0,3.4,1.7,6.8,5.1,10.2c2-2.7,3.4-6.5,4.1-11.3c0.7-4.8,1-9.6,1-14.3
		c0-4.8,0.2-9.6,0.5-14.3c0.3-4.8,0.9-8.5,1.5-11.3v9.2c0,7.5,3.4,10.9,10.2,10.2l12.3-15.4l7.2,10.2l10.2-19.5
		c-3.4,5.5-5.1,15-5.1,28.7v34.8c13.7,9.6,30.2,21.8,49.7,36.9c19.5,15,42.2,32.4,68.1,52.2c4.1-23.2,3.4-40.6-2-52.2l2,3.1
		c11.6-45.1,17.4-98.3,17.4-159.7c0-14.3-0.3-32.9-1-55.8c-0.7-22.9-2-50-4.1-81.4c-1.4-30.7-2.7-57.2-4.1-79.4s-1.7-41.1-1-56.8
		c10.2,0,15.4-5.1,15.4-15.4c0-3.4-0.3-6.5-1-9.2V815c0-6.1,1.7-10.2,5.1-12.3v-8.2c2,2.7,4.8,3.4,8.2,2c1.4-0.7,2.6-1.4,3.6-2
		s2.2-1.4,3.6-2c1.4,8.9,4.8,17.4,10.2,25.6l16.4,23.6c3.4-2.7,5.3-8.2,5.6-16.4c0.3-8.2,2.6-13.3,6.7-15.4c7.5,0.7,13.5,1.4,17.9,2
		c4.4,0.7,7.3,1.4,8.7,2c8.2,3.4,14,9.2,17.4,17.4c5.5,12.3,9.2,28,11.3,47.1l6.1,49.2c3.4-17.7,4.1-40.3,2-67.6l-4.1-65.5
		c-0.7,2.7,0,6.1,2,10.2h5.1c10.2,27.3,15.4,65.9,15.4,115.7c0,4.8-0.2,10.4-0.5,16.9c-0.3,6.5-0.5,14.5-0.5,24.1v42
		c0,11.6,1,28.7,3.1,51.2c0.7,11.6,1.2,21.7,1.5,30.2c0.3,8.5,0.5,15.5,0.5,21c0,10.2-0.7,22.9-2,37.9c-1.4,15-3.4,32.4-6.1,52.2
		c-2.7,19.8-4.8,37-6.1,51.7s-2,26.8-2,36.4c0,26.6,3.8,51.2,11.3,73.7c5.5,15.7,9.9,39.3,13.3,70.7l7.2,71.7
		c-4.1,0.7-6.8-0.7-8.2-4.1l-4.1-10.2c-4.1-25.9-8.9-57.7-14.3-95.2c-5.5-37.5-11.6-81.2-18.4-131.1c-3.4-2-4.4-3.8-3.1-5.1
		c2-4.1,3.1-6.5,3.1-7.2c-2-17.7-0.3-38.6,5.1-62.5c3.4-14.3,6-26.3,7.7-35.8c1.7-9.6,2.6-17.1,2.6-22.5c0-7.5-1-14.7-3.1-21.5
		c5.5-3.4,5.5-11.6,0-24.6c1.4-21.2,1.4-42,0-62.5c-1.4-20.5-3.8-40.6-7.2-60.4c-9.6,61.4-8.5,112.3,3.1,152.6l-22.5,200.7
		c8.9,37.5,15.4,70.8,19.5,99.8c4.1,29,6.1,53.8,6.1,74.2v16.4c0,5.5-0.3,10.9-1,16.4c-11.6,9.6-19.8,10.2-24.6,2
		c-0.7-0.7-1.5-0.7-2.6,0c-1,0.7-1.9,1.4-2.6,2c-0.7,0.7-1.4,1.7-2,3.1l-10.2-7.2c-0.7,4.1-3.8,9.9-9.2,17.4c-2.7,0.7-4.9-1-6.7-5.1
		c-1.7-4.1-3.6-6.5-5.6-7.2c-0.7,5.5-4.3,9-10.8,10.8c-6.5,1.7-10.4,2.9-11.8,3.6c-2-2.7-3.8-3.4-5.1-2c0.7,8.2-1.7,13.3-7.2,15.4
		c-8.2,2.7-14,6.5-17.4,11.3c-25.9-17.1-61.8-47.1-107.5-90.1c-42.3-40.3-78.5-69.3-108.5-87c-6.8,20.5-21.2,49.2-43,86
		c-21.2,36.9-35.5,65.5-43,86c-0.7-2.7-3.6-5.1-8.7-7.2c-5.1-2-7.7-4.4-7.7-7.2c0-0.7,0.7-3.1,2-7.2c13.7-18.4,20.1-34.8,19.5-49.2
		c-4.8,9.6-10.9,20.8-18.4,33.8c-7.5,13-17.1,28-28.7,45.1c-1.4-3.4-3.1-4.4-5.1-3.1l-7.2,7.2c-3.4-0.7-6.8-1.2-10.2-1.5
		c-3.4-0.3-6.8-0.5-10.2-0.5s-7.2,0.2-11.3,0.5c-4.1,0.3-8.2,0.9-12.3,1.5c-2.7,2.7-5.5,3.1-8.2,1c-3.4-2-6-4.3-7.7-6.7
		c-1.7-2.4-3.6-3.6-5.6-3.6c-6.1,0-12.6,4.4-19.5,13.3c-9.6,10.2-14.7,15.7-15.4,16.4c0.7-6.8-2.7-10.2-10.2-10.2
		c-8.2,0-13-0.7-14.3-2l-5.1,4.1l2,3.1c-1.4,3.4-4.4,5.1-9.2,5.1h-12.3l-12.3-12.3c-4.8,17.1-14.7,24.2-29.7,21.5l-2,3.1
		L1211.4,1593.3z M1871.9,782.2h3.1v4.1h-3.1V782.2z M1757.2,1454h-3.1v3.1h3.1V1454z M1726.5,1353.6c-0.7,0-9.9-6.8-27.6-20.5
		l49.2,47.1C1744.6,1372.1,1737.4,1363.2,1726.5,1353.6z M1671.2,1294.3c13.7,12.3,24.2,19.5,31.7,21.5l-12.3-9.2
		c-8.9-4.8-20.8-14-35.8-27.6c-15.7-14.3-27.3-23.2-34.8-26.6c-2.7,15.7,2,26.3,14.3,31.7c-0.7-2.7,1-6.1,5.1-10.2
		C1646.2,1275.8,1656.8,1282.6,1671.2,1294.3z M1604.6,1234.9l-2,2v10.2L1604.6,1234.9z M1590.3,1175.5l5.1-7.2L1590.3,1175.5z
		 M1570.8,1269.7c8.9-12.3,10.6-23.2,5.1-32.8C1568.4,1250.6,1566.7,1261.5,1570.8,1269.7z M1340.9,1140.7
		c-1,21.2-1.5,44.4-1.5,69.6c0,23.2,1,70.7,3.1,142.3c0.7,57.3,0.7,100.7,0,130c2.7-17.7,4.6-36.2,5.6-55.3
		c1-19.1,1.5-39.3,1.5-60.4c0-9.6-0.3-25.9-1-49.2c-0.7-23.2-1.7-53.2-3.1-90.1c-1.4-29.4-2.2-56.1-2.6-80.4
		c-0.3-24.2,0.2-45.9,1.5-65C1343.1,1100,1341.9,1119.5,1340.9,1140.7z"/>
	<path d="M689.2,1582c12.3-1.4,29.7-1.4,52.2,0c12.3,0.7,22.9,1.2,31.7,1.5c8.9,0.3,16-0.2,21.5-1.5l34.8-5.1v-2
		c-4.1,0.7-8.2,1-12.3,1h-13.3c-7.5,0-16.6-0.5-27.1-1.5c-10.6-1-22.7-2.2-36.4-3.6c-13.7-1.4-25.8-2.4-36.4-3.1
		c-10.6-0.7-19.6-1-27.1-1c-5.5,0-10.6,0.2-15.4,0.5c-4.8,0.3-9.6,0.9-14.3,1.5c1.4,0,4.1-2,8.2-6.1c-0.7-4.1-2.2-8.2-4.6-12.3
		c-2.4-4.1-3.6-7.2-3.6-9.2c0-2.7,1-6.5,3.1-11.3l20.5-7.2c9.6-3.4,14.7-7.9,15.4-13.3c-0.7-6.1-4.4-9.2-11.3-9.2
		c-6.1-0.7-9.6,0.3-10.2,3.1c-2.7-2-4.1-4.1-4.1-6.1c0-1.4,2-3.2,6.1-5.6s5.8-4.9,5.1-7.7c4.1,1.4,6.8,2,8.2,2
		c4.1,0,8.4-2.7,12.8-8.2c4.4-5.5,7.3-8.5,8.7-9.2c-0.7-1.4-1-3.4-1-6.1c0-2.7,4.8-9.9,14.3-21.5c4.8,0.7,11.3,0,19.5-2l-15.4-9.2
		l23.6,9.2c7.5-1.4,31.7-1.4,72.7,0c30.7,0.7,52.9-3.1,66.6-11.3c-2.7,0-4.1,0.7-4.1,2v6.1l42-12.3c9.6-2.7,18.1-4.8,25.6-6.1
		c7.5-1.4,14.7-1.7,21.5-1l14.3-10.2l3.1,2c13.7-36.2,18.1-78.5,13.3-127c-41.6,4.8-77.3,8.4-107,10.8c-29.7,2.4-54.1,3.6-73.2,3.6
		h-20c-6.5,0-13.1-0.3-20-1l-18.4-8.2l61.4-2c20.5-0.7,40.6-1.7,60.4-3.1c25.9-1.4,49-3.2,69.1-5.6c20.1-2.4,38.1-5.3,53.8-8.7
		c0.7-0.7,1-2,1-4.1c0-2.7-2.7-4.6-8.2-5.6c-5.5-1-8.9-2.2-10.2-3.6c-19.8,3.4-46.4,6.1-79.9,8.2c-33.5,2-74.4,3.1-122.9,3.1
		c-12.3-9.6-23.2-14-32.8-13.3v-6.1c4.1,0,6.8-0.7,8.2-2c0-2,1.5-3.8,4.6-5.1c3.1-1.4,6.1-3.1,9.2-5.1c3.1-2,6.1-4.3,9.2-6.7
		c3.1-2.4,4.6-4.9,4.6-7.7c-7.5-9.6-16.7-13-27.6-10.2c1.4-0.7,3.1-1,5.1-1c2,0,4.6,0.5,7.7,1.5c3.1,1,5.3,1.5,6.7,1.5
		c3.4,0,6.1-2.4,8.2-7.2c-2.7-2.7-4.1-5.5-4.1-8.2c0-1.4,1-3.4,3.1-6.1c2-2.7,3.1-5.1,3.1-7.2c11.6-2.7,26.3-4.9,44-6.7
		c17.7-1.7,38.2-3.2,61.4-4.6c25.9-1.4,48.1-2.7,66.6-4.1c18.4-1.4,33.5-2.7,45.1-4.1v-6.1c-15,0-37.9,1-68.6,3.1
		c-33.5,2-58,3.1-73.7,3.1c-28,0-53.6-2.7-76.8-8.2c21.8-5.5,58.7-8.5,110.6-9.2c23.9-0.7,45.1-2.2,63.5-4.6
		c18.4-2.4,34.1-5.3,47.1-8.7c0-9.6-1.4-14.7-4.1-15.4h-6.1l10.2-21.5c-2-11.6-2.7-30.4-2-56.3c1.4-23.9-0.7-42.3-6.1-55.3
		c-17.1-0.7-37,0.3-59.9,3.1c-22.9,2.7-49,7.5-78.3,14.3c-62.1,13.7-107.2,20.5-135.2,20.5c-6.8,0-13.5-0.2-20-0.5
		c-6.5-0.3-13.1-0.9-20-1.5c1.4,0.7,3.4,1,6.1,1c5.5,0,14.3-6.1,26.6-18.4c9.6-1.4,19.1-2.6,28.7-3.6c9.6-1,19.1-2.2,28.7-3.6
		c22.5-2.7,41-7.5,55.3-14.3c-16.4-2-35.5-0.7-57.3,4.1c-13.7,2.7-24.7,4.6-33.3,5.6c-8.5,1-15.2,1.5-20,1.5c-13,0-26.6-2.7-41-8.2
		c-2.7-1.4-3.4-4.8-2-10.2c2-4.8,5.6-7.2,10.8-7.2c5.1,0,11.4-3.1,18.9-9.2l-21.5-24.6c3.4,0,9.6,1.7,18.4,5.1
		c4.1-2,5.8-5.1,5.1-9.2c-0.7-4.1-1.2-7-1.5-8.7c-0.3-1.7-0.5-2.2-0.5-1.5l-6.1-7.2l19.5-9.2c8.2-4.1,11.9-9.6,11.3-16.4
		c-4.8-0.7-13-5.1-24.6-13.3c4.8-0.7,10.1-1.4,15.9-2c5.8-0.7,7.7-3.4,5.6-8.2c15.7,0.7,32.3,0.2,49.7-1.5
		c17.4-1.7,35-5.3,52.7-10.8l95.2-27.6c5.5,1.4,12.3,0.2,20.5-3.6c8.2-3.8,14.7-5.6,19.5-5.6h126l5.1-8.2c0.7,3.4,12.6,6.1,35.8,8.2
		c22.5,1.4,32.1,10.2,28.7,26.6c4.1,137.2,6.1,226.6,6.1,268.3c0,134.5-8.2,250.5-24.6,348.2v29.7c0,12.3-2.7,21.2-8.2,26.6
		l-8.2-8.2c-2.7,0.7-4.8,3.4-6.1,8.2c0.7,2,1,5.8,1,11.3c-4.8-2.7-9.2-4.1-13.3-4.1c-3.4,0-8.2,0.9-14.3,2.6
		c-6.1,1.7-10.6,2.6-13.3,2.6c-4.8,0-9.2-1-13.3-3.1c-4.8,2.7-6.5,7.2-5.1,13.3c1.4,6.1,1,10.6-1,13.3c-40.3-2-68.9,1.4-86,10.2
		c0.7,0,3.4,0.3,8.2,1c4.8,0.7,11.6,1.7,20.5,3.1c13,0.7,22.2,5.1,27.6,13.3l-289.8,26.6c-25.3,2-60.4-2.4-105.5-13.3
		C652.6,1584.7,670,1582.7,689.2,1582z M1130,787.4c4.4-3.4,8-5.1,10.8-5.1c3.4,0,7.2,2,11.3,6.1v13.3c-3.4,0-4.8-1.2-4.1-3.6
		c0.7-2.4,0.3-3.9-1-4.6h-30.7C1120.9,792.8,1125.5,790.8,1130,787.4z M1013.8,1280.9v8.2h3.1L1013.8,1280.9z M1010.7,1318.8h3.1
		v-24.6h-3.1V1318.8z M890.9,1568.7l-39.9,2C856.4,1571.4,869.7,1570.7,890.9,1568.7z M867.3,1127.3l-46.1-6.1L867.3,1127.3z"/>
	<path class="st0" d="M602.1,1387.4c0-4.8-1-9.2-3.1-13.3l9.2-6.1l2,41c-4.1-1.4-7.9,0.7-11.3,6.1c-3.4,5.5-6.5,8.2-9.2,8.2
		C598,1404.8,602.1,1392.9,602.1,1387.4z M9.7,1389c-1-22.9-2.2-43.2-3.6-60.9c-1.4-19.1-2.7-38.4-4.1-57.9s-2-39.4-2-59.9
		c0-49.2,4.1-120.2,12.3-213c2.7-3.4,6.7-12.3,11.8-26.6c5.1-14.3,11.8-33.5,20-57.3c12.3-36.2,30.4-60.1,54.3-71.7
		c8.2,6.1,16.7,9.2,25.6,9.2c10.9,0,28.3-6.8,52.2-20.5c28-14.3,54.3-21.5,78.8-21.5c19.1,0,36.2,4.1,51.2,12.3
		c13,1.4,28.7,3.8,47.1,7.2c18.4,3.4,39.9,7.9,64.5,13.3c10.9,2.7,37.9,19.8,80.9,51.2l57.3,71.7v-14.3l5.1,14.3l-2-2l-3.1,2
		c28.7,51.2,43,114.7,43,190.5c0,15-0.7,33.8-2,56.3c-1.4,22.5-3.4,49.2-6.1,79.9c-6.1,61.4-9.2,107.5-9.2,138.2
		c0,28.7,2,55.3,6.1,79.9l-6.1,6.1l-16.4-18.4l-9.2,18.4l-11.3-18.4c-4.1,2.7-6.1,8.2-6.1,16.4v7.2c0.7,2,1,4.4,1,7.2
		c0,11.6-6.1,17.1-18.4,16.4c-0.7-2.7-2.4-4.1-5.1-4.1c-2,0-4.9,0.9-8.7,2.6c-3.8,1.7-6.7,2.6-8.7,2.6c-1.4,0-2.4-0.3-3.1-1
		c-4.1,5.5-10.6,8.2-19.5,8.2h-13.3c-9.6,0-16,4.1-19.5,12.3l-6.1-6.1c-5.5,7.5-13,12.3-22.5,14.3c-3.4-9.6-6.3-20.5-8.7-32.8
		c-2.4-12.3-3.9-26.3-4.6-42l-3.1-77.8c0.7-8.9,2.2-22.4,4.6-40.4c2.4-18.1,5.6-41.5,9.7-70.1c3.4-23.2,6-44,7.7-62.5
		c1.7-18.4,2.6-34.8,2.6-49.2c0-7.5-0.2-14.7-0.5-21.5s-0.9-13.7-1.5-20.5c2-49.2-11.3-95.6-39.9-139.3
		c-14.3-21.8-30.9-40.6-49.7-56.3c-18.8-15.7-39.8-29.4-63-41l-10.2-4.1c-3.4-1.4-6.8-2-10.2-2c-17.7,0-33.1,11.6-46.1,34.8
		c-16.4,80.6-24.6,162.8-24.6,246.8c0,11.6,0.2,23.2,0.5,34.8c0.3,11.6,0.9,23.2,1.5,34.8c0.7,13,2.4,30,5.1,51.2
		c2.7,21.2,6.8,47.1,12.3,77.8c4.8,28.7,8.2,53.9,10.2,75.8c2,21.8,3.4,40.6,4.1,56.3c-2,2-3.1,6.8-3.1,14.3c0,5.5-2.7,7.5-8.2,6.1
		l-12.3-10.2c-14.3-119.5-25.6-250.9-33.8-394.2c0,4.1,0.7,6.8,2,8.2c2.7-31.4,5.6-63.7,8.7-96.8c3.1-33.1,7-68.1,11.8-105
		c-9.6,10.9-14.3,35.8-14.3,74.8v-54.3c-10.9,9.6-15.7,32.4-14.3,68.6c-10.2,47.8-15.4,97.6-15.4,149.5c0,41.6,4.1,94.9,12.3,159.7
		c5.5,44.4,9.9,80.6,13.3,108.5c3.4,28,5.8,48.1,7.2,60.4c5.5,4.1,8.2,15.7,8.2,34.8c-1.4-0.7-3.1-1-5.1-1c-2,0-3.8,1.4-5.1,4.1
		c-1.4,2.7-2.6,5.8-3.6,9.2c-1,3.4-1.9,6.7-2.6,9.7c-0.7,3.1-1.7,5.3-3.1,6.7c-2-4.1-4.8-6.1-8.2-6.1c-2,0-5.1,1-9.2,3.1
		c-4.1,2-7.2,3.1-9.2,3.1c0.7-2,0-4.1-2-6.1c-1.4,7.5-6.8,11.3-16.4,11.3H97.3c-4.1,0-7.9-0.3-11.3-1l-16.4-8.2l-2,22.5
		c-2,0-6,1.4-11.8,4.1c-5.8,2.7-10.1,4.1-12.8,4.1c-3.4,0-6.1-1.4-8.2-4.1l-18.4-137.2C13,1436.9,10.8,1411.8,9.7,1389z
		 M563.2,1184.7c0,10.9-0.3,22-1,33.3s-1.7,22.7-3.1,34.3c4.1-28.7,6.1-57.3,6.1-86c0-83.3-15.7-149.2-47.1-197.6
		C548.2,1040.3,563.2,1112.3,563.2,1184.7z M549.9,933.8h-3.1v-2h3.1V933.8z M541.7,1431.5l3.1,43L541.7,1431.5z M495.6,853.9
		l-28.7-26.6L495.6,853.9z M328.7,784.3c3.4-0.7,7-1.2,10.8-1.5c3.8-0.3,7.3-0.5,10.8-0.5c40.3,0,77.1,13,110.6,38.9
		c-4.1-0.7-16-6.8-35.8-18.4c-15.7-7.5-28-10.9-36.9-10.2C379.2,787,359.4,784.3,328.7,784.3z M363.5,1451.9l-8.2,6.1
		c8.9,17.7,13.3,37.5,13.3,59.4c0,16.4-3.1,30.7-9.2,43c1.4-13.7,0.3-32.1-3.1-55.3c-1.4-13-2.6-23.9-3.6-32.8
		c-1-8.9-1.5-15.7-1.5-20.5c0-15,2-28.7,6.1-41C353.3,1432.8,355.3,1446.5,363.5,1451.9z M158.7,1046.4h-3.1V1028h3.1V1046.4z
		 M155.6,1069h-2v-14.3h2V1069z M150.5,1103.8l3.1,25.6l-3.1-17.4V1103.8z M153.6,1092.5h-3.1v-12.3h3.1V1092.5z"/>
</g>
<g>
	<path d="M3037.1,10.8c-2.7,21.8-4.8,45.4-6.1,70.7c-1.4,25.3-2,52.2-2,80.9v51.7c0,20.8,0.7,45.6,2,74.2c0.7,28,1.4,52.4,2,73.2
		c0.7,20.8,1,38.1,1,51.7c0,26.6-0.5,51.7-1.5,75.3c-1,23.6-2.9,45.9-5.6,67.1c1.4,6.8,2.4,17.7,3.1,32.8c0.7,15,1.4,34.1,2,57.3
		c0.7,37.5,4.8,66.6,12.3,87c-0.7-0.7-1.4-1-2-1c-2.7,0-5.1-0.3-7.2-1c-4.1-1.4-6.8,0.3-8.2,5.1c3.4,22.5,1.7,36.2-5.1,41
		c0.7-0.7,0-2-2-4.1c-5.5-1.4-8.5-1-9.2,1v7.2c0.7,2.7,0.3,4.8-1,6.1c-2-16.4-10.9-30.4-26.6-42c-12.3,9.6-16.4,19.5-12.3,29.7
		c-11.6-3.4-21.5-3.4-29.7,0c-8.9-13.7-16.2-30.4-22-50.2c-5.8-19.8-9.4-42.7-10.8-68.6L2904,531c-2.7,11.6-4.6,24.1-5.6,37.4
		c-1,13.3-1.5,26.8-1.5,40.4c0,15,1.5,37.2,4.6,66.6c3.1,29.4,8,66.6,14.8,111.6c-10.9-10.9-19.8-26.6-26.6-47.1
		c-10.2-45.1-15.4-98.3-15.4-159.7c0-13.7,0.3-31.1,1-52.2c0.7-21.2,1.7-46.1,3.1-74.8c1.4-28.7,2.4-53.6,3.1-74.8
		c0.7-21.2,1-38.6,1-52.2c0-25.9-0.9-50.7-2.6-74.2c-1.7-23.6-4.3-45.2-7.7-65c-2.7,13-17.7,41.3-45.1,85
		c-21.2,32.8-30,62.8-26.6,90.1c-2,3.4-4.1,7-6.1,10.8c-2,3.8-3.8,7.3-5.1,10.8c-5.5,9.6-7.5,17.7-6.1,24.6
		c-3.4,6.8-8.4,12.3-14.8,16.4c-6.5,4.1-12.8,7.9-18.9,11.3c-4.1-1.4-5.8-3.4-5.1-6.1c2-5.5,2.7-8.5,2-9.2c5.5-7.5,6.5-13,3.1-16.4
		c-4.8-6.8-11.3-9.6-19.5-8.2c-0.7,6.8-7.5,12.6-20.5,17.4c0-3.4-2.4-5.1-7.2-5.1h-9.2v3.1c-2.7,1.4-5.1,1-7.2-1s-3.8-4.1-5.1-6.1
		l-3.1,2c-3.4-2-5.1-5.1-5.1-9.2c0-1.4,0.5-4.1,1.5-8.2c1-4.1,1.5-7.2,1.5-9.2c0-3.4-1.7-6.8-5.1-10.2c-2,2.7-3.4,6.5-4.1,11.3
		c-0.7,4.8-1,9.6-1,14.3c0,4.8-0.2,9.6-0.5,14.3c-0.3,4.8-0.9,8.5-1.5,11.3v-9.2c0-7.5-3.4-10.9-10.2-10.2l-12.3,15.4l-7.2-10.2
		l-10.2,19.5c3.4-5.5,5.1-15,5.1-28.7v-34.8c-13.7-9.6-30.2-21.8-49.7-36.9c-19.5-15-42.2-32.4-68.1-52.2c-4.1,23.2-3.4,40.6,2,52.2
		l-2-3.1c-11.6,45.1-17.4,98.3-17.4,159.7c0,14.3,0.3,32.9,1,55.8c0.7,22.9,2,50,4.1,81.4c1.4,30.7,2.7,57.2,4.1,79.4
		c1.4,22.2,1.7,41.1,1,56.8c-10.2,0-15.4,5.1-15.4,15.4c0,3.4,0.3,6.5,1,9.2v9.2c0,6.1-1.7,10.2-5.1,12.3v8.2c-2-2.7-4.8-3.4-8.2-2
		c-1.4,0.7-2.6,1.4-3.6,2c-1,0.7-2.2,1.4-3.6,2c-1.4-8.9-4.8-17.4-10.2-25.6l-16.4-23.6c-3.4,2.7-5.3,8.2-5.6,16.4
		c-0.3,8.2-2.6,13.3-6.7,15.4c-7.5-0.7-13.5-1.4-17.9-2c-4.4-0.7-7.3-1.4-8.7-2c-8.2-3.4-14-9.2-17.4-17.4
		c-5.5-12.3-9.2-28-11.3-47.1l-6.1-49.2c-3.4,17.7-4.1,40.3-2,67.6l4.1,65.5c0.7-2.7,0-6.1-2-10.2h-5.1
		c-10.2-27.3-15.4-65.9-15.4-115.7c0-4.8,0.2-10.4,0.5-16.9c0.3-6.5,0.5-14.5,0.5-24.1v-42c0-11.6-1-28.7-3.1-51.2
		c-0.7-11.6-1.2-21.7-1.5-30.2c-0.3-8.5-0.5-15.5-0.5-21c0-10.2,0.7-22.9,2-37.9c1.4-15,3.4-32.4,6.1-52.2c2.7-19.8,4.8-37,6.1-51.7
		c1.4-14.7,2-26.8,2-36.4c0-26.6-3.8-51.2-11.3-73.7c-5.5-15.7-9.9-39.3-13.3-70.7l-7.2-71.7c4.1-0.7,6.8,0.7,8.2,4.1l4.1,10.2
		c4.1,25.9,8.9,57.7,14.3,95.2c5.5,37.5,11.6,81.2,18.4,131.1c3.4,2,4.4,3.8,3.1,5.1c-2,4.1-3.1,6.5-3.1,7.2
		c2,17.7,0.3,38.6-5.1,62.5c-3.4,14.3-6,26.3-7.7,35.8c-1.7,9.6-2.6,17.1-2.6,22.5c0,7.5,1,14.7,3.1,21.5c-5.5,3.4-5.5,11.6,0,24.6
		c-1.4,21.2-1.4,42,0,62.5c1.4,20.5,3.8,40.6,7.2,60.4c9.6-61.4,8.5-112.3-3.1-152.6l22.5-200.7c-8.9-37.5-15.4-70.8-19.5-99.8
		c-4.1-29-6.1-53.8-6.1-74.2V103c0-5.5,0.3-10.9,1-16.4c11.6-9.6,19.8-10.2,24.6-2c0.7,0.7,1.5,0.7,2.6,0c1-0.7,1.9-1.4,2.6-2
		c0.7-0.7,1.4-1.7,2-3.1l10.2,7.2c0.7-4.1,3.8-9.9,9.2-17.4c2.7-0.7,4.9,1,6.7,5.1c1.7,4.1,3.6,6.5,5.6,7.2c0.7-5.5,4.3-9,10.8-10.8
		c6.5-1.7,10.4-2.9,11.8-3.6c2,2.7,3.8,3.4,5.1,2c-0.7-8.2,1.7-13.3,7.2-15.4c8.2-2.7,14-6.5,17.4-11.3
		c25.9,17.1,61.8,47.1,107.5,90.1c42.3,40.3,78.5,69.3,108.5,87c6.8-20.5,21.2-49.2,43-86c21.2-36.9,35.5-65.5,43-86
		c0.7,2.7,3.6,5.1,8.7,7.2c5.1,2,7.7,4.4,7.7,7.2c0,0.7-0.7,3.1-2,7.2c-13.7,18.4-20.1,34.8-19.5,49.2c4.8-9.6,10.9-20.8,18.4-33.8
		c7.5-13,17.1-28,28.7-45.1c1.4,3.4,3.1,4.4,5.1,3.1l7.2-7.2c3.4,0.7,6.8,1.2,10.2,1.5c3.4,0.3,6.8,0.5,10.2,0.5
		c3.4,0,7.2-0.2,11.3-0.5c4.1-0.3,8.2-0.9,12.3-1.5c2.7-2.7,5.5-3.1,8.2-1c3.4,2,6,4.3,7.7,6.7c1.7,2.4,3.6,3.6,5.6,3.6
		c6.1,0,12.6-4.4,19.5-13.3c9.6-10.2,14.7-15.7,15.4-16.4c-0.7,6.8,2.7,10.2,10.2,10.2c8.2,0,13,0.7,14.3,2l5.1-4.1l-2-3.1
		c1.4-3.4,4.4-5.1,9.2-5.1h12.3l12.3,12.3c4.8-17.1,14.7-24.2,29.7-21.5l2-3.1L3037.1,10.8z M2376.6,821.8h-3.1v-4.1h3.1V821.8z
		 M2491.3,150.1h3.1V147h-3.1V150.1z M2522,250.4c0.7,0,9.9,6.8,27.6,20.5l-49.2-47.1C2503.9,232,2511.1,240.9,2522,250.4z
		 M2577.3,309.8c-13.7-12.3-24.2-19.5-31.7-21.5l12.3,9.2c8.9,4.8,20.8,14,35.8,27.6c15.7,14.3,27.3,23.2,34.8,26.6
		c2.7-15.7-2-26.3-14.3-31.7c0.7,2.7-1,6.1-5.1,10.2C2602.3,328.3,2591.7,321.4,2577.3,309.8z M2643.9,369.2l2-2v-10.2L2643.9,369.2
		z M2658.2,428.6l-5.1,7.2L2658.2,428.6z M2677.7,334.4c-8.9,12.3-10.6,23.2-5.1,32.8C2680.1,353.5,2681.8,342.6,2677.7,334.4z
		 M2907.6,463.4c1-21.2,1.5-44.4,1.5-69.6c0-23.2-1-70.7-3.1-142.3c-0.7-57.3-0.7-100.7,0-130c-2.7,17.7-4.6,36.2-5.6,55.3
		c-1,19.1-1.5,39.3-1.5,60.4c0,9.6,0.3,25.9,1,49.2c0.7,23.2,1.7,53.2,3.1,90.1c1.4,29.4,2.2,56.1,2.6,80.4
		c0.3,24.2-0.2,45.9-1.5,65C2905.4,504.1,2906.6,484.6,2907.6,463.4z"/>
	<path d="M3559.4,22.1c-12.3,1.4-29.7,1.4-52.2,0c-12.3-0.7-22.9-1.2-31.7-1.5c-8.9-0.3-16,0.2-21.5,1.5l-34.8,5.1v2
		c4.1-0.7,8.2-1,12.3-1h13.3c7.5,0,16.6,0.5,27.1,1.5c10.6,1,22.7,2.2,36.4,3.6c13.7,1.4,25.8,2.4,36.4,3.1c10.6,0.7,19.6,1,27.1,1
		c5.5,0,10.6-0.2,15.4-0.5c4.8-0.3,9.6-0.9,14.3-1.5c-1.4,0-4.1,2-8.2,6.1c0.7,4.1,2.2,8.2,4.6,12.3c2.4,4.1,3.6,7.2,3.6,9.2
		c0,2.7-1,6.5-3.1,11.3l-20.5,7.2c-9.6,3.4-14.7,7.9-15.4,13.3c0.7,6.1,4.4,9.2,11.3,9.2c6.1,0.7,9.6-0.3,10.2-3.1
		c2.7,2,4.1,4.1,4.1,6.1c0,1.4-2,3.2-6.1,5.6c-4.1,2.4-5.8,4.9-5.1,7.7c-4.1-1.4-6.8-2-8.2-2c-4.1,0-8.4,2.7-12.8,8.2
		c-4.4,5.5-7.3,8.5-8.7,9.2c0.7,1.4,1,3.4,1,6.1c0,2.7-4.8,9.9-14.3,21.5c-4.8-0.7-11.3,0-19.5,2l15.4,9.2l-23.6-9.2
		c-7.5,1.4-31.7,1.4-72.7,0c-30.7-0.7-52.9,3.1-66.6,11.3c2.7,0,4.1-0.7,4.1-2v-6.1l-42,12.3c-9.6,2.7-18.1,4.8-25.6,6.1
		c-7.5,1.4-14.7,1.7-21.5,1l-14.3,10.2l-3.1-2c-13.7,36.2-18.1,78.5-13.3,127c41.6-4.8,77.3-8.4,107-10.8
		c29.7-2.4,54.1-3.6,73.2-3.6h20c6.5,0,13.1,0.3,20,1l18.4,8.2l-61.4,2c-20.5,0.7-40.6,1.7-60.4,3.1c-25.9,1.4-49,3.2-69.1,5.6
		c-20.1,2.4-38.1,5.3-53.8,8.7c-0.7,0.7-1,2-1,4.1c0,2.7,2.7,4.6,8.2,5.6c5.5,1,8.9,2.2,10.2,3.6c19.8-3.4,46.4-6.1,79.9-8.2
		c33.5-2,74.4-3.1,122.9-3.1c12.3,9.6,23.2,14,32.8,13.3v6.1c-4.1,0-6.8,0.7-8.2,2c0,2-1.5,3.8-4.6,5.1c-3.1,1.4-6.1,3.1-9.2,5.1
		c-3.1,2-6.1,4.3-9.2,6.7c-3.1,2.4-4.6,4.9-4.6,7.7c7.5,9.6,16.7,13,27.6,10.2c-1.4,0.7-3.1,1-5.1,1s-4.6-0.5-7.7-1.5
		c-3.1-1-5.3-1.5-6.7-1.5c-3.4,0-6.1,2.4-8.2,7.2c2.7,2.7,4.1,5.5,4.1,8.2c0,1.4-1,3.4-3.1,6.1c-2,2.7-3.1,5.1-3.1,7.2
		c-11.6,2.7-26.3,4.9-44,6.7c-17.7,1.7-38.2,3.2-61.4,4.6c-25.9,1.4-48.1,2.7-66.6,4.1c-18.4,1.4-33.5,2.7-45.1,4.1v6.1
		c15,0,37.9-1,68.6-3.1c33.5-2,58-3.1,73.7-3.1c28,0,53.6,2.7,76.8,8.2c-21.8,5.5-58.7,8.5-110.6,9.2c-23.9,0.7-45.1,2.2-63.5,4.6
		c-18.4,2.4-34.1,5.3-47.1,8.7c0,9.6,1.4,14.7,4.1,15.4h6.1l-10.2,21.5c2,11.6,2.7,30.4,2,56.3c-1.4,23.9,0.7,42.3,6.1,55.3
		c17.1,0.7,37-0.3,59.9-3.1c22.9-2.7,49-7.5,78.3-14.3c62.1-13.7,107.2-20.5,135.2-20.5c6.8,0,13.5,0.2,20,0.5
		c6.5,0.3,13.1,0.9,20,1.5c-1.4-0.7-3.4-1-6.1-1c-5.5,0-14.3,6.1-26.6,18.4c-9.6,1.4-19.1,2.6-28.7,3.6s-19.1,2.2-28.7,3.6
		c-22.5,2.7-41,7.5-55.3,14.3c16.4,2,35.5,0.7,57.3-4.1c13.7-2.7,24.7-4.6,33.3-5.6c8.5-1,15.2-1.5,20-1.5c13,0,26.6,2.7,41,8.2
		c2.7,1.4,3.4,4.8,2,10.2c-2,4.8-5.6,7.2-10.8,7.2c-5.1,0-11.4,3.1-18.9,9.2l21.5,24.6c-3.4,0-9.6-1.7-18.4-5.1
		c-4.1,2-5.8,5.1-5.1,9.2c0.7,4.1,1.2,7,1.5,8.7c0.3,1.7,0.5,2.2,0.5,1.5l6.1,7.2l-19.5,9.2c-8.2,4.1-11.9,9.6-11.3,16.4
		c4.8,0.7,13,5.1,24.6,13.3c-4.8,0.7-10.1,1.4-15.9,2c-5.8,0.7-7.7,3.4-5.6,8.2c-15.7-0.7-32.3-0.2-49.7,1.5
		c-17.4,1.7-35,5.3-52.7,10.8l-95.2,27.6c-5.5-1.4-12.3-0.2-20.5,3.6c-8.2,3.8-14.7,5.6-19.5,5.6h-126l-5.1,8.2
		c-0.7-3.4-12.6-6.1-35.8-8.2c-22.5-1.4-32.1-10.2-28.7-26.6c-4.1-137.2-6.1-226.6-6.1-268.3c0-134.5,8.2-250.5,24.6-348.2v-29.7
		c0-12.3,2.7-21.2,8.2-26.6l8.2,8.2c2.7-0.7,4.8-3.4,6.1-8.2c-0.7-2-1-5.8-1-11.3c4.8,2.7,9.2,4.1,13.3,4.1c3.4,0,8.2-0.9,14.3-2.6
		c6.1-1.7,10.6-2.6,13.3-2.6c4.8,0,9.2,1,13.3,3.1c4.8-2.7,6.5-7.2,5.1-13.3c-1.4-6.1-1-10.6,1-13.3c40.3,2,68.9-1.4,86-10.2
		c-0.7,0-3.4-0.3-8.2-1c-4.8-0.7-11.6-1.7-20.5-3.1c-13-0.7-22.2-5.1-27.6-13.3l289.8-26.6c25.3-2,60.4,2.4,105.5,13.3
		C3595.9,19.4,3578.5,21.4,3559.4,22.1z M3118.5,816.7c-4.4,3.4-8,5.1-10.8,5.1c-3.4,0-7.2-2-11.3-6.1v-13.3c3.4,0,4.8,1.2,4.1,3.6
		c-0.7,2.4-0.3,3.9,1,4.6h30.7C3127.6,811.3,3123,813.3,3118.5,816.7z M3234.7,323.2V315h-3.1L3234.7,323.2z M3237.8,285.3h-3.1
		v24.6h3.1V285.3z M3357.6,35.4l39.9-2C3392.1,32.7,3378.8,33.4,3357.6,35.4z M3381.2,476.8l46.1,6.1L3381.2,476.8z"/>
	<path class="st0" d="M3646.4,216.7c0,4.8,1,9.2,3.1,13.3l-9.2,6.1l-2-41c4.1,1.4,7.9-0.7,11.3-6.1c3.4-5.5,6.5-8.2,9.2-8.2
		C3650.5,199.2,3646.4,211.2,3646.4,216.7z M4238.8,215.1c1,22.9,2.2,43.2,3.6,60.9c1.4,19.1,2.7,38.4,4.1,57.9
		c1.4,19.5,2,39.4,2,59.9c0,49.2-4.1,120.2-12.3,213c-2.7,3.4-6.7,12.3-11.8,26.6c-5.1,14.3-11.8,33.5-20,57.3
		c-12.3,36.2-30.4,60.1-54.3,71.7c-8.2-6.1-16.7-9.2-25.6-9.2c-10.9,0-28.3,6.8-52.2,20.5c-28,14.3-54.3,21.5-78.8,21.5
		c-19.1,0-36.2-4.1-51.2-12.3c-13-1.4-28.7-3.8-47.1-7.2c-18.4-3.4-39.9-7.9-64.5-13.3c-10.9-2.7-37.9-19.8-80.9-51.2l-57.3-71.7
		v14.3l-5.1-14.3l2,2l3.1-2c-28.7-51.2-43-114.7-43-190.5c0-15,0.7-33.8,2-56.3c1.4-22.5,3.4-49.2,6.1-79.9
		c6.1-61.4,9.2-107.5,9.2-138.2c0-28.7-2-55.3-6.1-79.9l6.1-6.1l16.4,18.4l9.2-18.4l11.3,18.4c4.1-2.7,6.1-8.2,6.1-16.4v-7.2
		c-0.7-2-1-4.4-1-7.2c0-11.6,6.1-17.1,18.4-16.4c0.7,2.7,2.4,4.1,5.1,4.1c2,0,4.9-0.9,8.7-2.6c3.8-1.7,6.7-2.6,8.7-2.6
		c1.4,0,2.4,0.3,3.1,1c4.1-5.5,10.6-8.2,19.5-8.2h13.3c9.6,0,16-4.1,19.5-12.3l6.1,6.1c5.5-7.5,13-12.3,22.5-14.3
		c3.4,9.6,6.3,20.5,8.7,32.8c2.4,12.3,3.9,26.3,4.6,42l3.1,77.8c-0.7,8.9-2.2,22.4-4.6,40.4s-5.6,41.5-9.7,70.1
		c-3.4,23.2-6,44-7.7,62.5c-1.7,18.4-2.6,34.8-2.6,49.2c0,7.5,0.2,14.7,0.5,21.5s0.9,13.7,1.5,20.5c-2,49.2,11.3,95.6,39.9,139.3
		c14.3,21.8,30.9,40.6,49.7,56.3c18.8,15.7,39.8,29.4,63,41l10.2,4.1c3.4,1.4,6.8,2,10.2,2c17.7,0,33.1-11.6,46.1-34.8
		c16.4-80.6,24.6-162.8,24.6-246.8c0-11.6-0.2-23.2-0.5-34.8c-0.3-11.6-0.9-23.2-1.5-34.8c-0.7-13-2.4-30-5.1-51.2
		c-2.7-21.2-6.8-47.1-12.3-77.8c-4.8-28.7-8.2-53.9-10.2-75.8s-3.4-40.6-4.1-56.3c2-2,3.1-6.8,3.1-14.3c0-5.5,2.7-7.5,8.2-6.1
		l12.3,10.2c14.3,119.5,25.6,250.9,33.8,394.2c0-4.1-0.7-6.8-2-8.2c-2.7,31.4-5.6,63.7-8.7,96.8c-3.1,33.1-7,68.1-11.8,105
		c9.6-10.9,14.3-35.8,14.3-74.8v54.3c10.9-9.6,15.7-32.4,14.3-68.6c10.2-47.8,15.4-97.6,15.4-149.5c0-41.6-4.1-94.9-12.3-159.7
		c-5.5-44.4-9.9-80.6-13.3-108.5c-3.4-28-5.8-48.1-7.2-60.4c-5.5-4.1-8.2-15.7-8.2-34.8c1.4,0.7,3.1,1,5.1,1c2,0,3.8-1.4,5.1-4.1
		s2.6-5.8,3.6-9.2c1-3.4,1.9-6.7,2.6-9.7c0.7-3.1,1.7-5.3,3.1-6.7c2,4.1,4.8,6.1,8.2,6.1c2,0,5.1-1,9.2-3.1s7.2-3.1,9.2-3.1
		c-0.7,2,0,4.1,2,6.1c1.4-7.5,6.8-11.3,16.4-11.3h11.3c4.1,0,7.9,0.3,11.3,1l16.4,8.2l2-22.5c2,0,6-1.4,11.8-4.1s10.1-4.1,12.8-4.1
		c3.4,0,6.1,1.4,8.2,4.1l18.4,137.2C4235.5,167.2,4237.8,192.3,4238.8,215.1z M3685.3,419.4c0-10.9,0.3-22,1-33.3
		c0.7-11.3,1.7-22.7,3.1-34.3c-4.1,28.7-6.1,57.3-6.1,86c0,83.3,15.7,149.2,47.1,197.6C3700.3,563.8,3685.3,491.8,3685.3,419.4z
		 M3698.6,670.3h3.1v2h-3.1V670.3z M3706.8,172.6l-3.1-43L3706.8,172.6z M3752.9,750.2l28.7,26.6L3752.9,750.2z M3919.8,819.8
		c-3.4,0.7-7,1.2-10.8,1.5c-3.8,0.3-7.3,0.5-10.8,0.5c-40.3,0-77.1-13-110.6-38.9c4.1,0.7,16,6.8,35.8,18.4
		c15.7,7.5,28,10.9,36.9,10.2C3869.3,817.1,3889.1,819.8,3919.8,819.8z M3885,152.1l8.2-6.1c-8.9-17.7-13.3-37.5-13.3-59.4
		c0-16.4,3.1-30.7,9.2-43c-1.4,13.7-0.3,32.1,3.1,55.3c1.4,13,2.6,23.9,3.6,32.8c1,8.9,1.5,15.7,1.5,20.5c0,15-2,28.7-6.1,41
		C3895.2,171.3,3893.2,157.6,3885,152.1z M4089.8,557.6h3.1v18.4h-3.1V557.6z M4092.9,535.1h2v14.3h-2V535.1z M4098,500.3l-3.1-25.6
		l3.1,17.4V500.3z M4094.9,511.6h3.1v12.3h-3.1V511.6z"/>
</g>
<g>
	<path d="M3539.9,1593.3c2.7-21.8,4.8-45.4,6.1-70.7c1.4-25.3,2-52.2,2-80.9V1390c0-20.8-0.7-45.6-2-74.2c-0.7-28-1.4-52.4-2-73.2
		c-0.7-20.8-1-38.1-1-51.7c0-26.6,0.5-51.7,1.5-75.3c1-23.6,2.9-45.9,5.6-67.1c-1.4-6.8-2.4-17.7-3.1-32.8c-0.7-15-1.4-34.1-2-57.3
		c-0.7-37.5-4.8-66.6-12.3-87c0.7,0.7,1.4,1,2,1c2.7,0,5.1,0.3,7.2,1c4.1,1.4,6.8-0.3,8.2-5.1c-3.4-22.5-1.7-36.2,5.1-41
		c-0.7,0.7,0,2,2,4.1c5.5,1.4,8.5,1,9.2-1v-7.2c-0.7-2.7-0.3-4.8,1-6.1c2,16.4,10.9,30.4,26.6,42c12.3-9.6,16.4-19.5,12.3-29.7
		c11.6,3.4,21.5,3.4,29.7,0c8.9,13.7,16.2,30.4,22,50.2c5.8,19.8,9.4,42.7,10.8,68.6l4.1,124.9c2.7-11.6,4.6-24.1,5.6-37.4
		c1-13.3,1.5-26.8,1.5-40.4c0-15-1.5-37.2-4.6-66.6c-3.1-29.4-8-66.6-14.8-111.6c10.9,10.9,19.8,26.6,26.6,47.1
		c10.2,45.1,15.4,98.3,15.4,159.7c0,13.7-0.3,31.1-1,52.2c-0.7,21.2-1.7,46.1-3.1,74.8c-1.4,28.7-2.4,53.6-3.1,74.8
		c-0.7,21.2-1,38.6-1,52.2c0,25.9,0.9,50.7,2.6,74.2c1.7,23.6,4.3,45.2,7.7,65c2.7-13,17.7-41.3,45.1-85
		c21.2-32.8,30-62.8,26.6-90.1c2-3.4,4.1-7,6.1-10.8c2-3.8,3.8-7.3,5.1-10.8c5.5-9.6,7.5-17.7,6.1-24.6c3.4-6.8,8.4-12.3,14.8-16.4
		c6.5-4.1,12.8-7.9,18.9-11.3c4.1,1.4,5.8,3.4,5.1,6.1c-2,5.5-2.7,8.5-2,9.2c-5.5,7.5-6.5,13-3.1,16.4c4.8,6.8,11.3,9.6,19.5,8.2
		c0.7-6.8,7.5-12.6,20.5-17.4c0,3.4,2.4,5.1,7.2,5.1h9.2v-3.1c2.7-1.4,5.1-1,7.2,1s3.8,4.1,5.1,6.1l3.1-2c3.4,2,5.1,5.1,5.1,9.2
		c0,1.4-0.5,4.1-1.5,8.2c-1,4.1-1.5,7.2-1.5,9.2c0,3.4,1.7,6.8,5.1,10.2c2-2.7,3.4-6.5,4.1-11.3c0.7-4.8,1-9.6,1-14.3
		c0-4.8,0.2-9.6,0.5-14.3c0.3-4.8,0.9-8.5,1.5-11.3v9.2c0,7.5,3.4,10.9,10.2,10.2l12.3-15.4l7.2,10.2l10.2-19.5
		c-3.4,5.5-5.1,15-5.1,28.7v34.8c13.7,9.6,30.2,21.8,49.7,36.9c19.5,15,42.2,32.4,68.1,52.2c4.1-23.2,3.4-40.6-2-52.2l2,3.1
		c11.6-45.1,17.4-98.3,17.4-159.7c0-14.3-0.3-32.9-1-55.8c-0.7-22.9-2-50-4.1-81.4c-1.4-30.7-2.7-57.2-4.1-79.4
		c-1.4-22.2-1.7-41.1-1-56.8c10.2,0,15.4-5.1,15.4-15.4c0-3.4-0.3-6.5-1-9.2V815c0-6.1,1.7-10.2,5.1-12.3v-8.2c2,2.7,4.8,3.4,8.2,2
		c1.4-0.7,2.6-1.4,3.6-2c1-0.7,2.2-1.4,3.6-2c1.4,8.9,4.8,17.4,10.2,25.6l16.4,23.6c3.4-2.7,5.3-8.2,5.6-16.4
		c0.3-8.2,2.6-13.3,6.7-15.4c7.5,0.7,13.5,1.4,17.9,2c4.4,0.7,7.3,1.4,8.7,2c8.2,3.4,14,9.2,17.4,17.4c5.5,12.3,9.2,28,11.3,47.1
		l6.1,49.2c3.4-17.7,4.1-40.3,2-67.6l-4.1-65.5c-0.7,2.7,0,6.1,2,10.2h5.1c10.2,27.3,15.4,65.9,15.4,115.7c0,4.8-0.2,10.4-0.5,16.9
		c-0.3,6.5-0.5,14.5-0.5,24.1v42c0,11.6,1,28.7,3.1,51.2c0.7,11.6,1.2,21.7,1.5,30.2c0.3,8.5,0.5,15.5,0.5,21
		c0,10.2-0.7,22.9-2,37.9c-1.4,15-3.4,32.4-6.1,52.2c-2.7,19.8-4.8,37-6.1,51.7c-1.4,14.7-2,26.8-2,36.4c0,26.6,3.8,51.2,11.3,73.7
		c5.5,15.7,9.9,39.3,13.3,70.7l7.2,71.7c-4.1,0.7-6.8-0.7-8.2-4.1l-4.1-10.2c-4.1-25.9-8.9-57.7-14.3-95.2
		c-5.5-37.5-11.6-81.2-18.4-131.1c-3.4-2-4.4-3.8-3.1-5.1c2-4.1,3.1-6.5,3.1-7.2c-2-17.7-0.3-38.6,5.1-62.5
		c3.4-14.3,6-26.3,7.7-35.8c1.7-9.6,2.6-17.1,2.6-22.5c0-7.5-1-14.7-3.1-21.5c5.5-3.4,5.5-11.6,0-24.6c1.4-21.2,1.4-42,0-62.5
		c-1.4-20.5-3.8-40.6-7.2-60.4c-9.6,61.4-8.5,112.3,3.1,152.6l-22.5,200.7c8.9,37.5,15.4,70.8,19.5,99.8c4.1,29,6.1,53.8,6.1,74.2
		v16.4c0,5.5-0.3,10.9-1,16.4c-11.6,9.6-19.8,10.2-24.6,2c-0.7-0.7-1.5-0.7-2.6,0c-1,0.7-1.9,1.4-2.6,2c-0.7,0.7-1.4,1.7-2,3.1
		l-10.2-7.2c-0.7,4.1-3.8,9.9-9.2,17.4c-2.7,0.7-4.9-1-6.7-5.1c-1.7-4.1-3.6-6.5-5.6-7.2c-0.7,5.5-4.3,9-10.8,10.8
		c-6.5,1.7-10.4,2.9-11.8,3.6c-2-2.7-3.8-3.4-5.1-2c0.7,8.2-1.7,13.3-7.2,15.4c-8.2,2.7-14,6.5-17.4,11.3
		c-25.9-17.1-61.8-47.1-107.5-90.1c-42.3-40.3-78.5-69.3-108.5-87c-6.8,20.5-21.2,49.2-43,86c-21.2,36.9-35.5,65.5-43,86
		c-0.7-2.7-3.6-5.1-8.7-7.2c-5.1-2-7.7-4.4-7.7-7.2c0-0.7,0.7-3.1,2-7.2c13.7-18.4,20.1-34.8,19.5-49.2
		c-4.8,9.6-10.9,20.8-18.4,33.8c-7.5,13-17.1,28-28.7,45.1c-1.4-3.4-3.1-4.4-5.1-3.1l-7.2,7.2c-3.4-0.7-6.8-1.2-10.2-1.5
		c-3.4-0.3-6.8-0.5-10.2-0.5c-3.4,0-7.2,0.2-11.3,0.5c-4.1,0.3-8.2,0.9-12.3,1.5c-2.7,2.7-5.5,3.1-8.2,1c-3.4-2-6-4.3-7.7-6.7
		c-1.7-2.4-3.6-3.6-5.6-3.6c-6.1,0-12.6,4.4-19.5,13.3c-9.6,10.2-14.7,15.7-15.4,16.4c0.7-6.8-2.7-10.2-10.2-10.2
		c-8.2,0-13-0.7-14.3-2l-5.1,4.1l2,3.1c-1.4,3.4-4.4,5.1-9.2,5.1h-12.3l-12.3-12.3c-4.8,17.1-14.7,24.2-29.7,21.5l-2,3.1
		L3539.9,1593.3z M4200.4,782.2h3.1v4.1h-3.1V782.2z M4085.7,1454h-3.1v3.1h3.1V1454z M4055,1353.6c-0.7,0-9.9-6.8-27.6-20.5
		l49.2,47.1C4073.1,1372.1,4065.9,1363.2,4055,1353.6z M3999.7,1294.3c13.7,12.3,24.2,19.5,31.7,21.5l-12.3-9.2
		c-8.9-4.8-20.8-14-35.8-27.6c-15.7-14.3-27.3-23.2-34.8-26.6c-2.7,15.7,2,26.3,14.3,31.7c-0.7-2.7,1-6.1,5.1-10.2
		C3974.8,1275.8,3985.3,1282.6,3999.7,1294.3z M3933.1,1234.9l-2,2v10.2L3933.1,1234.9z M3918.8,1175.5l5.1-7.2L3918.8,1175.5z
		 M3899.3,1269.7c8.9-12.3,10.6-23.2,5.1-32.8C3896.9,1250.6,3895.2,1261.5,3899.3,1269.7z M3669.4,1140.7
		c-1,21.2-1.5,44.4-1.5,69.6c0,23.2,1,70.7,3.1,142.3c0.7,57.3,0.7,100.7,0,130c2.7-17.7,4.6-36.2,5.6-55.3
		c1-19.1,1.5-39.3,1.5-60.4c0-9.6-0.3-25.9-1-49.2c-0.7-23.2-1.7-53.2-3.1-90.1c-1.4-29.4-2.2-56.1-2.6-80.4
		c-0.3-24.2,0.2-45.9,1.5-65C3671.6,1100,3670.5,1119.5,3669.4,1140.7z"/>
	<path d="M3017.7,1582c12.3-1.4,29.7-1.4,52.2,0c12.3,0.7,22.9,1.2,31.7,1.5c8.9,0.3,16-0.2,21.5-1.5l34.8-5.1v-2
		c-4.1,0.7-8.2,1-12.3,1h-13.3c-7.5,0-16.6-0.5-27.1-1.5c-10.6-1-22.7-2.2-36.4-3.6c-13.7-1.4-25.8-2.4-36.4-3.1
		c-10.6-0.7-19.6-1-27.1-1c-5.5,0-10.6,0.2-15.4,0.5c-4.8,0.3-9.6,0.9-14.3,1.5c1.4,0,4.1-2,8.2-6.1c-0.7-4.1-2.2-8.2-4.6-12.3
		c-2.4-4.1-3.6-7.2-3.6-9.2c0-2.7,1-6.5,3.1-11.3l20.5-7.2c9.6-3.4,14.7-7.9,15.4-13.3c-0.7-6.1-4.4-9.2-11.3-9.2
		c-6.1-0.7-9.6,0.3-10.2,3.1c-2.7-2-4.1-4.1-4.1-6.1c0-1.4,2-3.2,6.1-5.6s5.8-4.9,5.1-7.7c4.1,1.4,6.8,2,8.2,2
		c4.1,0,8.4-2.7,12.8-8.2c4.4-5.5,7.3-8.5,8.7-9.2c-0.7-1.4-1-3.4-1-6.1c0-2.7,4.8-9.9,14.3-21.5c4.8,0.7,11.3,0,19.5-2l-15.4-9.2
		l23.6,9.2c7.5-1.4,31.7-1.4,72.7,0c30.7,0.7,52.9-3.1,66.6-11.3c-2.7,0-4.1,0.7-4.1,2v6.1l42-12.3c9.6-2.7,18.1-4.8,25.6-6.1
		c7.5-1.4,14.7-1.7,21.5-1l14.3-10.2l3.1,2c13.7-36.2,18.1-78.5,13.3-127c-41.6,4.8-77.3,8.4-107,10.8c-29.7,2.4-54.1,3.6-73.2,3.6
		h-20c-6.5,0-13.1-0.3-20-1l-18.4-8.2l61.4-2c20.5-0.7,40.6-1.7,60.4-3.1c25.9-1.4,49-3.2,69.1-5.6c20.1-2.4,38.1-5.3,53.8-8.7
		c0.7-0.7,1-2,1-4.1c0-2.7-2.7-4.6-8.2-5.6c-5.5-1-8.9-2.2-10.2-3.6c-19.8,3.4-46.4,6.1-79.9,8.2c-33.5,2-74.4,3.1-122.9,3.1
		c-12.3-9.6-23.2-14-32.8-13.3v-6.1c4.1,0,6.8-0.7,8.2-2c0-2,1.5-3.8,4.6-5.1c3.1-1.4,6.1-3.1,9.2-5.1c3.1-2,6.1-4.3,9.2-6.7
		c3.1-2.4,4.6-4.9,4.6-7.7c-7.5-9.6-16.7-13-27.6-10.2c1.4-0.7,3.1-1,5.1-1s4.6,0.5,7.7,1.5c3.1,1,5.3,1.5,6.7,1.5
		c3.4,0,6.1-2.4,8.2-7.2c-2.7-2.7-4.1-5.5-4.1-8.2c0-1.4,1-3.4,3.1-6.1c2-2.7,3.1-5.1,3.1-7.2c11.6-2.7,26.3-4.9,44-6.7
		c17.7-1.7,38.2-3.2,61.4-4.6c25.9-1.4,48.1-2.7,66.6-4.1c18.4-1.4,33.5-2.7,45.1-4.1v-6.1c-15,0-37.9,1-68.6,3.1
		c-33.5,2-58,3.1-73.7,3.1c-28,0-53.6-2.7-76.8-8.2c21.8-5.5,58.7-8.5,110.6-9.2c23.9-0.7,45.1-2.2,63.5-4.6
		c18.4-2.4,34.1-5.3,47.1-8.7c0-9.6-1.4-14.7-4.1-15.4h-6.1l10.2-21.5c-2-11.6-2.7-30.4-2-56.3c1.4-23.9-0.7-42.3-6.1-55.3
		c-17.1-0.7-37,0.3-59.9,3.1c-22.9,2.7-49,7.5-78.3,14.3c-62.1,13.7-107.2,20.5-135.2,20.5c-6.8,0-13.5-0.2-20-0.5
		c-6.5-0.3-13.1-0.9-20-1.5c1.4,0.7,3.4,1,6.1,1c5.5,0,14.3-6.1,26.6-18.4c9.6-1.4,19.1-2.6,28.7-3.6c9.6-1,19.1-2.2,28.7-3.6
		c22.5-2.7,41-7.5,55.3-14.3c-16.4-2-35.5-0.7-57.3,4.1c-13.7,2.7-24.7,4.6-33.3,5.6c-8.5,1-15.2,1.5-20,1.5c-13,0-26.6-2.7-41-8.2
		c-2.7-1.4-3.4-4.8-2-10.2c2-4.8,5.6-7.2,10.8-7.2s11.4-3.1,18.9-9.2l-21.5-24.6c3.4,0,9.6,1.7,18.4,5.1c4.1-2,5.8-5.1,5.1-9.2
		c-0.7-4.1-1.2-7-1.5-8.7c-0.3-1.7-0.5-2.2-0.5-1.5l-6.1-7.2l19.5-9.2c8.2-4.1,11.9-9.6,11.3-16.4c-4.8-0.7-13-5.1-24.6-13.3
		c4.8-0.7,10.1-1.4,15.9-2c5.8-0.7,7.7-3.4,5.6-8.2c15.7,0.7,32.3,0.2,49.7-1.5c17.4-1.7,35-5.3,52.7-10.8l95.2-27.6
		c5.5,1.4,12.3,0.2,20.5-3.6c8.2-3.8,14.7-5.6,19.5-5.6h126l5.1-8.2c0.7,3.4,12.6,6.1,35.8,8.2c22.5,1.4,32.1,10.2,28.7,26.6
		c4.1,137.2,6.1,226.6,6.1,268.3c0,134.5-8.2,250.5-24.6,348.2v29.7c0,12.3-2.7,21.2-8.2,26.6l-8.2-8.2c-2.7,0.7-4.8,3.4-6.1,8.2
		c0.7,2,1,5.8,1,11.3c-4.8-2.7-9.2-4.1-13.3-4.1c-3.4,0-8.2,0.9-14.3,2.6c-6.1,1.7-10.6,2.6-13.3,2.6c-4.8,0-9.2-1-13.3-3.1
		c-4.8,2.7-6.5,7.2-5.1,13.3c1.4,6.1,1,10.6-1,13.3c-40.3-2-68.9,1.4-86,10.2c0.7,0,3.4,0.3,8.2,1c4.8,0.7,11.6,1.7,20.5,3.1
		c13,0.7,22.2,5.1,27.6,13.3l-289.8,26.6c-25.3,2-60.4-2.4-105.5-13.3C2981.1,1584.7,2998.5,1582.7,3017.7,1582z M3458.5,787.4
		c4.4-3.4,8-5.1,10.8-5.1c3.4,0,7.2,2,11.3,6.1v13.3c-3.4,0-4.8-1.2-4.1-3.6c0.7-2.4,0.3-3.9-1-4.6h-30.7
		C3449.4,792.8,3454.1,790.8,3458.5,787.4z M3342.3,1280.9v8.2h3.1L3342.3,1280.9z M3339.2,1318.8h3.1v-24.6h-3.1V1318.8z
		 M3219.4,1568.7l-39.9,2C3184.9,1571.4,3198.2,1570.7,3219.4,1568.7z M3195.8,1127.3l-46.1-6.1L3195.8,1127.3z"/>
	<path class="st0" d="M2930.6,1387.4c0-4.8-1-9.2-3.1-13.3l9.2-6.1l2,41c-4.1-1.4-7.9,0.7-11.3,6.1c-3.4,5.5-6.5,8.2-9.2,8.2
		C2926.5,1404.8,2930.6,1392.9,2930.6,1387.4z M2338.2,1389c-1-22.9-2.2-43.2-3.6-60.9c-1.4-19.1-2.7-38.4-4.1-57.9s-2-39.4-2-59.9
		c0-49.2,4.1-120.2,12.3-213c2.7-3.4,6.7-12.3,11.8-26.6c5.1-14.3,11.8-33.5,20-57.3c12.3-36.2,30.4-60.1,54.3-71.7
		c8.2,6.1,16.7,9.2,25.6,9.2c10.9,0,28.3-6.8,52.2-20.5c28-14.3,54.3-21.5,78.8-21.5c19.1,0,36.2,4.1,51.2,12.3
		c13,1.4,28.7,3.8,47.1,7.2c18.4,3.4,39.9,7.9,64.5,13.3c10.9,2.7,37.9,19.8,80.9,51.2l57.3,71.7v-14.3l5.1,14.3l-2-2l-3.1,2
		c28.7,51.2,43,114.7,43,190.5c0,15-0.7,33.8-2,56.3c-1.4,22.5-3.4,49.2-6.1,79.9c-6.1,61.4-9.2,107.5-9.2,138.2
		c0,28.7,2,55.3,6.1,79.9l-6.1,6.1l-16.4-18.4l-9.2,18.4l-11.3-18.4c-4.1,2.7-6.1,8.2-6.1,16.4v7.2c0.7,2,1,4.4,1,7.2
		c0,11.6-6.1,17.1-18.4,16.4c-0.7-2.7-2.4-4.1-5.1-4.1c-2,0-4.9,0.9-8.7,2.6c-3.8,1.7-6.7,2.6-8.7,2.6c-1.4,0-2.4-0.3-3.1-1
		c-4.1,5.5-10.6,8.2-19.5,8.2h-13.3c-9.6,0-16,4.1-19.5,12.3l-6.1-6.1c-5.5,7.5-13,12.3-22.5,14.3c-3.4-9.6-6.3-20.5-8.7-32.8
		c-2.4-12.3-3.9-26.3-4.6-42l-3.1-77.8c0.7-8.9,2.2-22.4,4.6-40.4c2.4-18.1,5.6-41.5,9.7-70.1c3.4-23.2,6-44,7.7-62.5
		c1.7-18.4,2.6-34.8,2.6-49.2c0-7.5-0.2-14.7-0.5-21.5s-0.9-13.7-1.5-20.5c2-49.2-11.3-95.6-39.9-139.3
		c-14.3-21.8-30.9-40.6-49.7-56.3c-18.8-15.7-39.8-29.4-63-41l-10.2-4.1c-3.4-1.4-6.8-2-10.2-2c-17.7,0-33.1,11.6-46.1,34.8
		c-16.4,80.6-24.6,162.8-24.6,246.8c0,11.6,0.2,23.2,0.5,34.8c0.3,11.6,0.9,23.2,1.5,34.8c0.7,13,2.4,30,5.1,51.2
		c2.7,21.2,6.8,47.1,12.3,77.8c4.8,28.7,8.2,53.9,10.2,75.8c2,21.8,3.4,40.6,4.1,56.3c-2,2-3.1,6.8-3.1,14.3c0,5.5-2.7,7.5-8.2,6.1
		l-12.3-10.2c-14.3-119.5-25.6-250.9-33.8-394.2c0,4.1,0.7,6.8,2,8.2c2.7-31.4,5.6-63.7,8.7-96.8c3.1-33.1,7-68.1,11.8-105
		c-9.6,10.9-14.3,35.8-14.3,74.8v-54.3c-10.9,9.6-15.7,32.4-14.3,68.6c-10.2,47.8-15.4,97.6-15.4,149.5c0,41.6,4.1,94.9,12.3,159.7
		c5.5,44.4,9.9,80.6,13.3,108.5c3.4,28,5.8,48.1,7.2,60.4c5.5,4.1,8.2,15.7,8.2,34.8c-1.4-0.7-3.1-1-5.1-1c-2,0-3.8,1.4-5.1,4.1
		c-1.4,2.7-2.6,5.8-3.6,9.2c-1,3.4-1.9,6.7-2.6,9.7c-0.7,3.1-1.7,5.3-3.1,6.7c-2-4.1-4.8-6.1-8.2-6.1c-2,0-5.1,1-9.2,3.1
		c-4.1,2-7.2,3.1-9.2,3.1c0.7-2,0-4.1-2-6.1c-1.4,7.5-6.8,11.3-16.4,11.3h-11.3c-4.1,0-7.9-0.3-11.3-1l-16.4-8.2l-2,22.5
		c-2,0-6,1.4-11.8,4.1c-5.8,2.7-10.1,4.1-12.8,4.1c-3.4,0-6.1-1.4-8.2-4.1l-18.4-137.2C2341.5,1436.9,2339.3,1411.8,2338.2,1389z
		 M2891.7,1184.7c0,10.9-0.3,22-1,33.3c-0.7,11.3-1.7,22.7-3.1,34.3c4.1-28.7,6.1-57.3,6.1-86c0-83.3-15.7-149.2-47.1-197.6
		C2876.7,1040.3,2891.7,1112.3,2891.7,1184.7z M2878.4,933.8h-3.1v-2h3.1V933.8z M2870.2,1431.5l3.1,43L2870.2,1431.5z
		 M2824.1,853.9l-28.7-26.6L2824.1,853.9z M2657.2,784.3c3.4-0.7,7-1.2,10.8-1.5c3.8-0.3,7.3-0.5,10.8-0.5
		c40.3,0,77.1,13,110.6,38.9c-4.1-0.7-16-6.8-35.8-18.4c-15.7-7.5-28-10.9-36.9-10.2C2707.7,787,2687.9,784.3,2657.2,784.3z
		 M2692,1451.9l-8.2,6.1c8.9,17.7,13.3,37.5,13.3,59.4c0,16.4-3.1,30.7-9.2,43c1.4-13.7,0.3-32.1-3.1-55.3
		c-1.4-13-2.6-23.9-3.6-32.8c-1-8.9-1.5-15.7-1.5-20.5c0-15,2-28.7,6.1-41C2681.8,1432.8,2683.8,1446.5,2692,1451.9z M2487.2,1046.4
		h-3.1V1028h3.1V1046.4z M2484.2,1069h-2v-14.3h2V1069z M2479,1103.8l3.1,25.6l-3.1-17.4V1103.8z M2482.1,1092.5h-3.1v-12.3h3.1
		V1092.5z"/>
</g>
</svg>
