<svg id="Capa_1" data-name="Capa 1" xmlns="http://www.w3.org/2000/svg" viewBox="0 0 1920 1607.01"><defs><style>.cls-1{fill:#fff;}.cls-2{fill:#cf131b;}</style></defs><title>logo-w</title><path class="cls-1" d="M708.61,10.83q-4.1,32.78-6.14,70.66t-2.05,80.89V214.1q0,31.23,2.05,74.24,1,42,2,73.21t1,51.71q0,39.94-1.54,75.27t-5.63,67.07q2.05,10.24,3.07,32.77t2,57.34q1,56.32,12.29,87a3,3,0,0,0-2-1,22.8,22.8,0,0,1-7.17-1q-6.13-2.06-8.19,5.12,5.11,33.78-5.12,41c.68-.69,0-2-2-4.1-5.46-1.37-8.53-1-9.21,1v7.17q1,4.1-1,6.15-3.08-24.59-26.62-42-18.44,14.34-12.29,29.7-17.4-5.13-29.7,0-13.3-20.49-22-50.18T579.59,656L575.49,531a244.85,244.85,0,0,0-5.63,37.37q-1.54,20-1.54,40.45,0,22.53,4.61,66.56T587.78,787q-16.38-16.39-26.63-47.11-15.36-67.57-15.36-159.74,0-20.49,1-52.23t3.07-74.75q2.05-43,3.07-74.75t1-52.23q0-38.91-2.56-74.24t-7.68-65q-4.1,19.46-45.06,85-31.74,49.16-26.62,90.11-3.07,5.13-6.15,10.76a101,101,0,0,0-5.12,10.75q-8.19,14.34-6.14,24.57a40.46,40.46,0,0,1-14.85,16.39q-9.74,6.14-18.94,11.26-6.15-2-5.12-6.14c2-5.46,2.73-8.53,2-9.22q8.2-11.26,3.08-16.38-7.17-10.24-19.46-8.19-1,10.23-20.48,17.4,0-5.11-7.17-5.12h-9.21v3.08c-2.74,1.36-5.12,1-7.17-1a40.23,40.23,0,0,1-5.12-6.14l-3.07,2.05a10,10,0,0,1-5.12-9.22,43.18,43.18,0,0,1,1.53-8.19,41.75,41.75,0,0,0,1.54-9.22q0-5.12-5.12-10.24-3.07,4.09-4.1,11.27a101.55,101.55,0,0,0-1,14.33q0,7.17-.51,14.34a70.09,70.09,0,0,1-1.54,11.26v-9.21q0-11.27-10.24-10.24l-12.29,15.36-7.17-10.24-10.24,19.45q5.13-8.19,5.12-28.67V362.06q-20.47-14.32-49.66-36.86T182.27,273q-6.14,34.81,2,52.22l-2-3.07q-17.4,67.58-17.41,159.74,0,21.51,1,55.81T170,619.09q2.06,46.08,4.1,79.36a550.45,550.45,0,0,1,1,56.83q-15.36,0-15.36,15.36a38.18,38.18,0,0,0,1,9.22v9.21q0,9.23-5.12,12.29v8.19q-3.08-4.09-8.19-2a33.77,33.77,0,0,0-3.59,2,31.88,31.88,0,0,1-3.58,2.05A63.29,63.29,0,0,0,130.05,786l-16.39-23.55q-5.11,4.09-5.63,16.38t-6.65,15.36q-11.26-1-17.92-2t-8.71-2a31.22,31.22,0,0,1-17.41-17.41q-8.19-18.44-11.26-47.1l-6.14-49.16q-5.13,26.63-2,67.59L42,809.55c.69-2.73,0-6.14-2-10.24H34.82Q19.46,758.36,19.46,683.6q0-7.17.51-16.89t.51-24.07v-42q0-17.42-3.07-51.2-1-17.41-1.54-30.21t-.51-21q0-15.36,2.05-37.89t6.14-52.23q4.1-29.68,6.15-51.71t2-36.35q0-39.93-11.26-73.73Q12.29,222.8,7.17,175.7L0,104q6.15-1,8.19,4.09l4.1,10.24q6.13,38.91,14.33,95.23T45.06,344.66q5.11,3.06,3.07,5.12-3.08,6.14-3.07,7.16,3.06,26.63-5.12,62.47-5.13,21.49-7.68,35.84T29.7,477.78a74.36,74.36,0,0,0,3.07,21.5q-8.19,5.12,0,24.58a475.09,475.09,0,0,0,0,62.46,580.87,580.87,0,0,0,7.17,60.42q14.33-92.16-3.08-152.58l22.53-200.7q-13.3-56.32-19.45-99.84t-6.15-74.24V103a130.51,130.51,0,0,1,1-16.38q17.4-14.34,24.57-2c.68.68,1.54.68,2.56,0a16.37,16.37,0,0,0,2.56-2,11.94,11.94,0,0,0,2-3.07L76.8,86.61q1-6.15,9.22-17.41,4.1-1,6.65,5.12t5.63,7.17q1-8.19,10.76-10.76t11.77-3.58q3.08,4.09,5.12,2-1-12.29,7.17-15.36,12.28-4.1,17.41-11.26,38.91,25.59,107.52,90.11,63.48,60.42,108.54,87,10.25-30.72,43-86,31.74-55.29,43-86,1,4.11,8.7,7.17T469,62q0,1-2,7.17-20.49,27.64-19.46,49.15,7.17-14.34,18.43-33.79T494.59,39.5q2.06,5.13,5.12,3.08l7.17-7.17q5.13,1,10.24,1.53c3.42.34,6.83.52,10.24.52s7.17-.18,11.27-.52,8.19-.85,12.28-1.53q4.1-4.09,8.2-1A25.24,25.24,0,0,1,566.79,41q2.55,3.59,5.63,3.58,9.21,0,19.45-13.31Q606.21,16,607.23,14.93q-1,10.23,10.24,10.24,12.3,0,14.34,2l5.12-4.1-2-3.07q2.05-5.13,9.22-5.12h12.29l12.28,12.29q7.17-25.6,29.7-21.51l2-3.07Zm-660.48,811H45.06v-4.09h3.07ZM162.82,150.1h3.07V147h-3.07Zm30.72,100.35q1,0,27.65,20.48L172,223.82Q177.16,236.12,193.54,250.45Zm55.29,59.39q-20.47-18.43-31.74-21.5l12.29,9.21q13.31,7.17,35.84,27.65,23.55,21.51,34.81,26.62,4.1-23.55-14.33-31.74,1,4.1-5.12,10.24Q270.34,327.25,248.83,309.84Zm66.56,59.39,2.05-2.05V356.94Zm14.34,59.39-5.12,7.17Zm19.46-94.2q-13.32,18.42-5.12,32.76Q355.34,346.7,349.19,334.42Zm229.88,129q1.54-31.74,1.54-69.63,0-34.81-3.07-142.34-1-86,0-130-4.1,26.62-5.63,55.3t-1.54,60.42q0,14.33,1,49.15t3.08,90.11q2,44,2.56,80.38t-1.54,65Q577.55,495.19,579.07,463.44Z" transform="translate(0 1.46)"/><path class="cls-1" d="M1230.85,22.1q-18.43,2-52.23,0-18.43-1-31.74-1.54t-21.5,1.54l-34.82,5.12v2a74.93,74.93,0,0,1,12.29-1h13.31q11.27,0,27.14,1.54t36.35,3.58q20.47,2,36.35,3.07t27.14,1q8.19,0,15.36-.52t14.33-1.53q-2,0-8.19,6.14a36.13,36.13,0,0,0,4.61,12.29q3.59,6.15,3.58,9.21,0,4.11-3.07,11.27l-20.48,7.17q-14.34,5.12-15.36,13.31,1,9.21,11.26,9.22,9.22,1,10.24-3.08,4.1,3.07,4.1,6.15,0,2-6.14,5.63t-5.12,7.68q-6.15-2.06-8.2-2.05-6.13,0-12.8,8.19c-4.43,5.46-7.34,8.54-8.7,9.22a14.28,14.28,0,0,1,1,6.14q0,4.09-14.33,21.51-7.17-1-19.46,2.05l15.36,9.21-23.55-9.21q-11.26,2-72.71,0-46.08-1-66.56,11.26c2.74,0,4.1-.68,4.1-2.05v-6.14l-42,12.29q-14.34,4.1-25.6,6.14a76.64,76.64,0,0,1-21.51,1L939,198.22l-3.08-2q-20.48,54.27-13.31,127,62.46-7.17,107-10.75t73.22-3.58h20q9.74,0,20,1l18.44,8.19-61.45,2.05q-30.72,1-60.41,3.07-38.91,2.06-69.12,5.63t-53.76,8.71c-.68.68-1,2.05-1,4.09q0,4.1,8.2,5.64t10.24,3.58q29.68-5.12,79.87-8.19t122.88-3.07q18.43,14.32,32.77,13.31V359q-6.15,0-8.19,2.05,0,3.07-4.61,5.12a62.44,62.44,0,0,0-9.22,5.12q-4.61,3.08-9.22,6.66t-4.6,7.68q11.27,14.33,27.65,10.24a11.47,11.47,0,0,1-5.12,1,25.2,25.2,0,0,1-7.69-1.54,24.44,24.44,0,0,0-6.65-1.53c-3.41,0-6.15,2.39-8.19,7.17q4.1,4.09,4.09,8.19,0,2-3.07,6.14t-3.07,7.17q-17.41,4.09-44,6.66t-61.44,4.6q-38.91,2.06-66.56,4.1t-45.06,4.1v6.14Q937,448.08,983,445q50.18-3.08,73.73-3.07,42,0,76.8,8.19-32.77,8.19-110.6,9.21-35.84,1-63.48,4.61a379,379,0,0,0-47.11,8.71q0,14.32,4.1,15.36h6.14l-10.24,21.5q3.07,17.41,2,56.32-2.05,35.83,6.14,55.3,25.6,1,59.91-3.07t78.33-14.34Q1152,583.26,1194,583.25q10.24,0,20,.51t20,1.54a14.15,14.15,0,0,0-6.15-1q-8.19,0-26.62,18.44-14.34,2-28.67,3.58t-28.67,3.58q-33.8,4.1-55.3,14.34,24.57,3.07,57.34-4.1,20.49-4.1,33.28-5.63a179.6,179.6,0,0,1,20-1.53q19.45,0,41,8.19,4.1,2,2,10.24-3.08,7.17-10.75,7.17t-18.95,9.21l21.51,24.58q-5.12,0-18.43-5.12-6.15,3.07-5.12,9.21t1.53,8.71c.34,1.7.51,2.22.51,1.53l6.15,7.17-19.46,9.22q-12.28,6.13-11.26,16.38,7.17,1,24.57,13.31-7.15,1-15.87,2t-5.63,8.19a352.44,352.44,0,0,0-49.66,1.54,268.38,268.38,0,0,0-52.74,10.75l-95.23,27.65q-8.19-2.05-20.48,3.58t-19.46,5.64h-126l-5.12,8.19q-1-5.12-35.84-8.19-33.79-2.05-28.67-26.63-6.15-205.82-6.15-268.29,0-201.72,24.58-348.16V119.38q0-18.43,8.19-26.63l8.19,8.19q4.09-1,6.15-8.19-1-3.07-1-11.26,7.17,4.1,13.32,4.09,5.12,0,14.33-2.56t13.31-2.56A29.37,29.37,0,0,1,852,83.54q7.15-4.11,5.12-13.32t1-13.31q60.42,3.08,86-10.24-1,0-8.2-1t-20.48-3.07q-19.46-1-27.64-13.32L1177.6,2.64Q1215.49-.44,1283.07,16A297.28,297.28,0,0,1,1230.85,22.1ZM790,816.72q-6.64,5.13-10.75,5.12-5.12,0-11.26-6.14V802.39c3.41,0,4.78,1.19,4.09,3.58s-.34,3.93,1,4.61h30.72A29.44,29.44,0,0,0,790,816.72ZM906.24,323.15V315h-3.07Zm3.07-37.89h-3.07v24.58h3.07ZM1029.12,35.41l39.93-2Q1060.86,32.34,1029.12,35.41Zm23.55,441.34,46.08,6.15Z" transform="translate(0 1.46)"/><path class="cls-2" d="M1317.89,216.66A29.35,29.35,0,0,0,1321,230l-9.22,6.14-2-41q6.15,2.06,11.27-6.14t9.21-8.19Q1317.89,208.47,1317.89,216.66Zm592.38-1.54q1.55,34.31,3.59,60.93,2,28.67,4.09,57.85t2,59.91q0,73.72-12.29,213-4.1,5.12-11.77,26.63t-20,57.34q-18.43,54.27-54.27,71.68-12.3-9.21-25.6-9.22-16.39,0-52.23,20.48-42,21.51-78.85,21.51-28.66,0-51.2-12.29-19.46-2.05-47.1-7.17t-64.51-13.31q-16.39-4.1-80.9-51.2L1364,639.57v14.34l-5.12-14.34,2,2,3.08-2q-43-76.8-43-190.47,0-22.52,2-56.32t6.14-79.87q9.21-92.16,9.22-138.24a486.15,486.15,0,0,0-6.15-79.87l6.15-6.14,16.38,18.43L1364,88.66l11.26,18.43q6.15-4.09,6.14-16.39V83.54a22.8,22.8,0,0,1-1-7.17q0-17.41,18.43-16.39c.69,2.73,2.39,4.1,5.12,4.1q3.07,0,8.71-2.56t8.7-2.56a4.17,4.17,0,0,1,3.07,1q6.15-8.19,19.46-8.19h13.31q14.34,0,19.46-12.29l6.14,6.15a36.19,36.19,0,0,1,22.53-14.34,226.92,226.92,0,0,1,8.7,32.77,286.39,286.39,0,0,1,4.61,42l3.07,77.83q-1,13.31-4.61,40.45t-9.72,70.14q-5.13,34.81-7.68,62.46t-2.56,49.16q0,11.26.51,21.5t1.53,20.48q-3.06,73.73,39.94,139.27a255.86,255.86,0,0,0,49.67,56.32,322.59,322.59,0,0,0,63,41l10.24,4.09a27.3,27.3,0,0,0,10.24,2q26.63,0,46.08-34.82a1234.54,1234.54,0,0,0,24.58-246.78q0-17.42-.51-34.82t-1.54-34.81q-1-19.46-5.12-51.2t-12.29-77.83q-7.17-43-10.24-75.77t-4.09-56.33q3.06-3.06,3.07-14.33,0-8.19,8.19-6.14l12.29,10.24q21.5,179.19,33.79,394.24,0-6.15-2.05-8.2-4.1,47.11-8.7,96.77t-11.78,105q14.34-16.38,14.34-74.75v54.27q16.38-14.33,14.33-68.6a711.89,711.89,0,0,0,15.36-149.51q0-62.46-12.28-159.74-8.2-66.57-13.32-108.55t-7.16-60.41q-8.21-6.15-8.2-34.82a11.47,11.47,0,0,0,5.12,1q3.07,0,5.12-4.09a57.92,57.92,0,0,0,3.59-9.22q1.53-5.11,2.56-9.73t3.07-6.65q3.07,6.13,8.19,6.14,3.08,0,9.22-3.07c4.09-2,7.17-3.07,9.21-3.07-.68,2,0,4.09,2,6.14q2.06-11.26,16.39-11.26h11.26a57.66,57.66,0,0,1,11.26,1l16.39,8.19,2.05-22.53q3.06,0,11.77-4.09t12.8-4.1a9.71,9.71,0,0,1,8.19,4.1l18.44,137.22Q1908.74,180.81,1910.27,215.12ZM1356.8,419.41q0-16.38,1-33.28t3.07-34.31a608.53,608.53,0,0,0-6.14,86q0,124.94,47.1,197.63Q1356.8,527.95,1356.8,419.41Zm13.31,250.88h3.07v2.05h-3.07Zm8.19-497.67-3.07-43Zm46.08,577.54,28.67,26.63Zm166.92,69.63a99.83,99.83,0,0,1-10.76,1.54c-3.75.34-7.34.51-10.75.51q-60.42,0-110.59-38.91,6.13,1,35.84,18.43,23.55,11.26,36.86,10.24Q1545.22,819.79,1591.3,819.79Zm-34.82-667.65,8.19-6.14q-13.31-26.62-13.31-59.39,0-24.58,9.21-43-2,20.48,3.08,55.3,2,19.45,3.58,32.76a193.67,193.67,0,0,1,1.54,20.48q0,22.53-6.15,41Q1568.77,160.34,1556.48,152.14Zm204.8,405.51h3.07v18.43h-3.07Zm3.07-22.53h2.05v14.34h-2.05Zm5.12-34.81-3.07-25.61,3.07,17.41Zm-3.07,11.26h3.07v12.29h-3.07Z" transform="translate(0 1.46)"/><path class="cls-1" d="M1211.39,1593.26q4.09-32.77,6.14-70.66t2-80.89V1390q0-31.24-2-74.24-1-42-2-73.22t-1-51.71q0-39.94,1.54-75.27t5.63-67.07q-2.06-10.24-3.07-32.77t-2-57.34q-1-56.32-12.29-87a3,3,0,0,0,2,1,22.8,22.8,0,0,1,7.17,1q6.13,2.05,8.19-5.11-5.12-33.79,5.12-41c-.68.69,0,2.05,2,4.1,5.46,1.37,8.53,1,9.21-1v-7.17q-1-4.1,1-6.15,3.07,24.59,26.62,42,18.43-14.34,12.29-29.7,17.4,5.13,29.7,0,13.3,20.49,22,50.18t10.75,68.61l4.1,124.93a245.17,245.17,0,0,0,5.63-37.38q1.54-20,1.54-40.45,0-22.53-4.61-66.56t-14.85-111.62q16.38,16.4,26.63,47.11,15.36,67.59,15.36,159.74,0,20.49-1,52.23t-3.07,74.75q-2.05,43-3.07,74.75t-1,52.23q0,38.91,2.56,74.24t7.68,65q4.1-19.45,45.06-85,31.74-49.16,26.62-90.11,3.08-5.13,6.15-10.76a100.07,100.07,0,0,0,5.12-10.75q8.19-14.32,6.14-24.57a40.46,40.46,0,0,1,14.85-16.39q9.74-6.13,18.94-11.26,6.15,2,5.12,6.14c-2,5.46-2.73,8.54-2,9.22q-8.2,11.27-3.08,16.38,7.17,10.24,19.46,8.19,1-10.23,20.48-17.4,0,5.12,7.17,5.12h9.21v-3.08c2.74-1.36,5.12-1,7.17,1a40.23,40.23,0,0,1,5.12,6.14l3.07-2a10,10,0,0,1,5.12,9.22,43,43,0,0,1-1.53,8.19,41.75,41.75,0,0,0-1.54,9.22q0,5.12,5.12,10.24,3.07-4.09,4.1-11.27a101.45,101.45,0,0,0,1-14.33q0-7.17.51-14.34a70.09,70.09,0,0,1,1.54-11.26v9.21q0,11.27,10.24,10.24l12.29-15.36,7.17,10.24,10.24-19.45q-5.13,8.19-5.12,28.67V1242q20.47,14.33,49.66,36.86t68.1,52.23q6.13-34.83-2-52.23l2,3.07q17.4-67.57,17.41-159.74,0-21.51-1-55.81T1750,985q-2.05-46.08-4.1-79.36a550.45,550.45,0,0,1-1-56.83q15.36,0,15.36-15.36a38.24,38.24,0,0,0-1-9.22V815q0-9.22,5.12-12.29v-8.19q3.08,4.1,8.19,2a33.77,33.77,0,0,0,3.59-2,31.88,31.88,0,0,1,3.58-2,63.29,63.29,0,0,0,10.24,25.6l16.39,23.55q5.12-4.1,5.63-16.38t6.65-15.36q11.27,1,17.92,2t8.71,2a31.22,31.22,0,0,1,17.41,17.41q8.19,18.44,11.26,47.11l6.14,49.15q5.13-26.62,2-67.59L1878,794.54c-.69,2.73,0,6.14,2,10.24h5.12q15.36,41,15.36,115.71,0,7.17-.51,16.9t-.51,24.06v42q0,17.42,3.07,51.2,1,17.41,1.54,30.21t.51,21q0,15.36-2.05,37.89t-6.14,52.23q-4.1,29.68-6.15,51.71t-2,36.35q0,39.95,11.26,73.73,8.19,23.55,13.31,70.66l7.17,71.68q-6.15,1-8.19-4.1l-4.1-10.24q-6.14-38.91-14.33-95.23t-18.44-131.08q-5.12-3.06-3.07-5.12,3.08-6.13,3.07-7.16-3.06-26.62,5.12-62.47,5.13-21.5,7.68-35.84t2.56-22.53a74.36,74.36,0,0,0-3.07-21.5q8.19-5.11,0-24.58a475.09,475.09,0,0,0,0-62.46,580.87,580.87,0,0,0-7.17-60.42q-14.32,92.16,3.08,152.58l-22.53,200.71q13.31,56.31,19.45,99.84t6.15,74.24v16.38a130.51,130.51,0,0,1-1,16.38q-17.4,14.34-24.57,2c-.68-.68-1.54-.68-2.56,0a16.37,16.37,0,0,0-2.56,2,11.94,11.94,0,0,0-2,3.07l-10.24-7.17q-1,6.15-9.22,17.41-4.1,1-6.65-5.12t-5.63-7.17q-1,8.2-10.76,10.76t-11.77,3.58q-3.08-4.1-5.12-2,1,12.28-7.17,15.36-12.29,4.1-17.41,11.27-38.91-25.61-107.52-90.12-63.48-60.4-108.54-87-10.25,30.72-43,86-31.74,55.29-43,86-1-4.1-8.7-7.17t-7.68-7.17q0-1,2-7.17,20.49-27.65,19.46-49.15-7.17,14.34-18.43,33.79t-28.67,45.06q-2.06-5.11-5.12-3.07l-7.17,7.16q-5.13-1-10.24-1.53t-10.24-.51c-3.42,0-7.17.17-11.27.51s-8.19.85-12.28,1.53q-4.1,4.1-8.2,1a25.24,25.24,0,0,1-7.68-6.66q-2.55-3.58-5.63-3.58-9.21,0-19.45,13.31-14.34,15.36-15.36,16.38,1-10.23-10.24-10.24-12.3,0-14.34-2l-5.12,4.09,2,3.07q-2.05,5.13-9.22,5.12h-12.29l-12.28-12.28q-7.17,25.59-29.7,21.5l-2.05,3.07Zm660.48-811h3.07v4.09h-3.07ZM1757.18,1454h-3.07v3.07h3.07Zm-30.72-100.36q-1,0-27.65-20.48l49.16,47.11Q1742.84,1368,1726.46,1353.64Zm-55.29-59.39q20.47,18.43,31.74,21.51l-12.29-9.22q-13.3-7.17-35.84-27.65-23.55-21.5-34.81-26.62-4.1,23.55,14.33,31.74-1-4.1,5.12-10.24Q1649.67,1276.84,1671.17,1294.25Zm-66.56-59.39-2,2.05v10.24Zm-14.34-59.39,5.12-7.17Zm-19.46,94.2q13.32-18.42,5.12-32.76Q1564.67,1257.38,1570.81,1269.67Zm-229.88-129q-1.54,31.74-1.54,69.63,0,34.82,3.07,142.34,1,86,0,130.05,4.1-26.62,5.63-55.3t1.54-60.41q0-14.34-1-49.16t-3.08-90.11q-2-44-2.56-80.38t1.54-65Q1342.46,1108.91,1340.93,1140.65Z" transform="translate(0 1.46)"/><path class="cls-1" d="M689.15,1582q18.44-2.05,52.23,0,18.43,1,31.74,1.53t21.5-1.53l34.82-5.12v-2.05a74.93,74.93,0,0,1-12.29,1H803.84q-11.26,0-27.14-1.53t-36.35-3.59q-20.48-2-36.35-3.07t-27.14-1q-8.19,0-15.36.51t-14.33,1.53q2,0,8.19-6.14a36.13,36.13,0,0,0-4.61-12.29c-2.39-4.09-3.58-7.17-3.58-9.21q0-4.1,3.07-11.27l20.48-7.17q14.34-5.11,15.36-13.31-1-9.21-11.26-9.21-9.23-1-10.24,3.07-4.1-3.08-4.1-6.15,0-2,6.14-5.63t5.12-7.68q6.15,2.05,8.2,2,6.13,0,12.8-8.19c4.43-5.46,7.34-8.54,8.7-9.22a14.28,14.28,0,0,1-1-6.14q0-4.1,14.33-21.51,7.17,1,19.46-2l-15.36-9.22,23.55,9.22q11.26-2.06,72.71,0,46.08,1,66.56-11.27c-2.74,0-4.1.68-4.1,2.05v6.14l42-12.28q14.34-4.11,25.6-6.15a77,77,0,0,1,21.51-1L981,1405.87l3.08,2.05q20.48-54.29,13.31-127-62.46,7.17-107,10.75t-73.22,3.59h-20q-9.74,0-20-1l-18.44-8.19,61.45-2q30.72-1,60.41-3.07,38.91-2.06,69.12-5.63t53.76-8.71c.68-.68,1-2,1-4.09q0-4.1-8.2-5.63t-10.24-3.59q-29.68,5.12-79.87,8.19t-122.88,3.08q-18.43-14.34-32.77-13.32v-6.14q6.15,0,8.19-2c0-2,1.54-3.75,4.61-5.12a61.54,61.54,0,0,0,9.22-5.12q4.6-3.07,9.22-6.66t4.6-7.68q-11.26-14.33-27.65-10.24a11.47,11.47,0,0,1,5.12-1,25.2,25.2,0,0,1,7.69,1.54,24.44,24.44,0,0,0,6.65,1.53c3.41,0,6.15-2.39,8.19-7.17q-4.09-4.09-4.09-8.19,0-2,3.07-6.14t3.07-7.17q17.41-4.09,44-6.66t61.44-4.6q38.91-2.05,66.56-4.1t45.06-4.1V1156q-22.53,0-68.61,3.07-50.18,3.08-73.73,3.07-42,0-76.8-8.19,32.77-8.19,110.6-9.21,35.84-1,63.48-4.61a379,379,0,0,0,47.11-8.71q0-14.33-4.1-15.36h-6.14l10.24-21.5q-3.07-17.41-2-56.32,2.05-35.84-6.14-55.3-25.6-1-59.91,3.08t-78.33,14.33Q768,1020.85,726,1020.84q-10.24,0-20-.51t-20-1.54a14.15,14.15,0,0,0,6.15,1q8.19,0,26.62-18.43,14.34-2.05,28.67-3.59t28.67-3.58q33.79-4.1,55.3-14.34-24.57-3.07-57.34,4.1-20.49,4.1-33.28,5.63a180.09,180.09,0,0,1-20,1.54q-19.46,0-41-8.2-4.1-2-2.05-10.24,3.08-7.15,10.75-7.16t19-9.22l-21.51-24.58q5.11,0,18.43,5.12c4.1-2,5.8-5.12,5.12-9.21s-1.19-7-1.53-8.71-.51-2.22-.51-1.53l-6.15-7.17L720.9,901q12.29-6.13,11.26-16.38-7.17-1-24.57-13.31,7.15-1,15.87-2.05t5.63-8.19a352.44,352.44,0,0,0,49.66-1.54,268.38,268.38,0,0,0,52.74-10.75l95.23-27.65q8.19,2.05,20.48-3.58t19.46-5.64h125.95l5.12-8.19q1,5.13,35.84,8.19,33.79,2.05,28.67,26.63,6.15,205.83,6.15,268.29,0,201.72-24.58,348.16v29.7q0,18.42-8.19,26.62l-8.19-8.19q-4.1,1-6.15,8.19,1,3.08,1,11.26-7.17-4.1-13.32-4.09-5.12,0-14.33,2.56t-13.31,2.56a29.49,29.49,0,0,1-13.32-3.07q-7.15,4.1-5.12,13.31t-1,13.31q-60.42-3.08-86,10.24,1,0,8.2,1t20.48,3.08q19.46,1,27.64,13.31L742.4,1601.45q-37.89,3.08-105.47-13.31A296.38,296.38,0,0,1,689.15,1582ZM1130,787.37q6.65-5.11,10.75-5.12,5.12,0,11.26,6.14V801.7c-3.41,0-4.78-1.19-4.09-3.58s.34-3.93-1-4.61h-30.72A29.44,29.44,0,0,0,1130,787.37Zm-116.23,493.57v8.19h3.07Zm-3.07,37.89h3.07v-24.58h-3.07ZM890.88,1568.68l-39.93,2Q859.14,1571.75,890.88,1568.68Zm-23.55-441.34-46.08-6.15Z" transform="translate(0 1.46)"/><path class="cls-2" d="M602.11,1387.44a29.36,29.36,0,0,0-3.07-13.32l9.22-6.14,2,41q-6.15-2.06-11.27,6.14t-9.21,8.2Q602.12,1395.62,602.11,1387.44ZM9.73,1389Q8.18,1354.67,6.14,1328q-2-28.66-4.09-57.85t-2-59.91q0-73.72,12.29-213,4.09-5.12,11.77-26.62t20-57.35q18.44-54.27,54.27-71.68,12.3,9.23,25.6,9.22,16.4,0,52.23-20.48,42-21.51,78.85-21.51,28.66,0,51.2,12.29,19.45,2.05,47.1,7.17t64.51,13.31q16.4,4.1,80.9,51.2L556,964.52V950.19l5.12,14.33-2-2-3.08,2q43,76.8,43,190.47,0,22.52-2,56.32t-6.14,79.87q-9.21,92.16-9.22,138.24a486.07,486.07,0,0,0,6.15,79.87l-6.15,6.15L565.25,1497,556,1515.44,544.77,1497q-6.15,4.1-6.14,16.39v7.17a22.69,22.69,0,0,1,1,7.16q0,17.41-18.43,16.39c-.69-2.73-2.39-4.1-5.12-4.1-2.05,0-5,.86-8.71,2.56s-6.65,2.56-8.7,2.56a4.17,4.17,0,0,1-3.07-1q-6.15,8.19-19.46,8.19H462.85q-14.34,0-19.46,12.29l-6.14-6.15a36.19,36.19,0,0,1-22.53,14.34A226.92,226.92,0,0,1,406,1540a286.39,286.39,0,0,1-4.61-42l-3.07-77.83q1-13.31,4.61-40.44t9.72-70.15q5.13-34.81,7.68-62.46t2.56-49.16q0-11.25-.51-21.5T420.87,1156q3.06-73.73-39.94-139.26a255.4,255.4,0,0,0-49.67-56.32,321.68,321.68,0,0,0-63-41l-10.24-4.1a27.3,27.3,0,0,0-10.24-2q-26.62,0-46.08,34.82a1234.54,1234.54,0,0,0-24.58,246.78q0,17.41.51,34.82t1.54,34.82q1,19.45,5.12,51.2t12.29,77.82q7.17,43,10.24,75.78t4.09,56.32q-3.06,3.06-3.07,14.33,0,8.19-8.19,6.15l-12.29-10.24q-21.49-179.2-33.79-394.25,0,6.15,2.05,8.2,4.09-47.11,8.7-96.77t11.78-105q-14.34,16.38-14.34,74.75V968.62q-16.38,14.32-14.33,68.61a711.72,711.72,0,0,0-15.36,149.5q0,62.46,12.28,159.75Q152.58,1413,157.7,1455t7.16,60.42q8.2,6.13,8.2,34.81a11.47,11.47,0,0,0-5.12-1q-3.08,0-5.12,4.09a57.92,57.92,0,0,0-3.59,9.22q-1.53,5.12-2.56,9.73t-3.07,6.65q-3.07-6.14-8.19-6.14-3.07,0-9.22,3.07c-4.09,2.05-7.17,3.07-9.21,3.07q1-3.06-2-6.14Q122.88,1584,108.54,1584H97.28A57.66,57.66,0,0,1,86,1583l-16.39-8.19-2,22.53q-3.06,0-11.77,4.09t-12.8,4.1a9.71,9.71,0,0,1-8.19-4.1L16.38,1464.24Q11.27,1423.28,9.73,1389ZM563.2,1184.68q0,16.39-1,33.28t-3.07,34.31a608.53,608.53,0,0,0,6.14-86q0-124.93-47.1-197.63Q563.19,1076.14,563.2,1184.68ZM549.89,933.8h-3.07v-2h3.07Zm-8.19,497.67,3.07,43ZM495.62,853.93,467,827.3ZM328.7,784.3a99.83,99.83,0,0,1,10.76-1.54c3.75-.34,7.34-.51,10.75-.51q60.42,0,110.59,38.91-6.14-1-35.84-18.43-23.55-11.26-36.86-10.24Q374.78,784.3,328.7,784.3ZM363.52,1452l-8.19,6.14q13.31,26.63,13.31,59.39,0,24.58-9.21,43,2-20.48-3.08-55.29-2-19.46-3.58-32.77a193.67,193.67,0,0,1-1.54-20.48q0-22.53,6.15-41Q351.23,1443.75,363.52,1452Zm-204.8-405.51h-3.07V1028h3.07ZM155.65,1069H153.6v-14.34h2.05Zm-5.12,34.82,3.07,25.6L150.53,1112Zm3.07-11.27h-3.07v-12.29h3.07Z" transform="translate(0 1.46)"/></svg>