<?xml version="1.0" encoding="UTF-8"?>
<svg width="96px" height="96px" viewBox="0 0 96 96" version="1.1" xmlns="http://www.w3.org/2000/svg" xmlns:xlink="http://www.w3.org/1999/xlink">
    <title>Group 2</title>
    <g id="xs-color" stroke="none" stroke-width="1" fill="none" fill-rule="evenodd">
        <g id="Registro" transform="translate(-36.000000, -46.000000)">
            <g id="Group-2" transform="translate(36.000000, 46.000000)">
                <circle id="Oval" fill="#FFFFFF" cx="48" cy="48" r="48"></circle>
                <g id="Group" transform="translate(27.000000, 18.000000)" fill="#D8D8D8">
                    <circle id="Oval-4" cx="21" cy="16" r="16"></circle>
                    <path d="M19.7557842,62.3062596 C26.7795854,62.3062596 35.1871181,64.9248885 38.350345,59.9869585 C39.8120688,57.7051462 38.350345,50.1773567 38.350345,46.5482874 C38.350345,39.0756196 36.0235452,32.5476449 30.7304792,31.2409 C27.8902099,30.5396983 23.3420281,33.7288776 19.7557842,33.7288776 C15.3288156,33.7288776 11.5006174,30.0383871 8.30744849,31.2409 C4.09324072,32.8279251 1.16122345,40.01565 1.16122345,46.5482874 C1.16122345,51.5297882 -1.45152932,57.4789888 1.16122345,59.9869585 C4.57094788,63.2599376 13.9415424,62.3062596 19.7557842,62.3062596 Z" id="Oval-5"></path>
                </g>
            </g>
        </g>
    </g>
</svg>